<svg width="58" height="23" viewBox="0 0 58 23" fill="none" xmlns="http://www.w3.org/2000/svg">
<path d="M52 7C49.5 7 47.5 9 47.5 11.5C47.5 14 49.5 16 52 16C54.5 16 56.5 14 56.5 11.5C56.5 9 54.5 7 52 7Z" fill="white"/>
<path d="M0.93934 10.4393C0.353553 11.0251 0.353553 11.9749 0.93934 12.5607L10.4853 22.1066C11.0711 22.6924 12.0208 22.6924 12.6066 22.1066C13.1924 21.5208 13.1924 20.5711 12.6066 19.9853L4.12132 11.5L12.6066 3.01472C13.1924 2.42893 13.1924 1.47918 12.6066 0.893398C12.0208 0.307612 11.0711 0.307612 10.4853 0.893398L0.93934 10.4393ZM47.5 11.5H49C49 9.82843 50.3284 8.5 52 8.5V7V5.5C48.6716 5.5 46 8.17157 46 11.5H47.5ZM52 7V8.5C53.6716 8.5 55 9.82843 55 11.5H56.5H58C58 8.17157 55.3284 5.5 52 5.5V7ZM56.5 11.5H55C55 13.1716 53.6716 14.5 52 14.5V16V17.5C55.3284 17.5 58 14.8284 58 11.5H56.5ZM52 16V14.5C50.3284 14.5 49 13.1716 49 11.5H47.5H46C46 14.8284 48.6716 17.5 52 17.5V16ZM47.5 11.5V10H2V11.5V13H47.5V11.5Z" fill="#FFCC00"/>
</svg>
