<svg width="58" height="23" viewBox="0 0 58 23" fill="none" xmlns="http://www.w3.org/2000/svg">
<path d="M6 7C3.5 7 1.5 9 1.5 11.5C1.5 14 3.5 16 6 16C8.5 16 10.5 14 10.5 11.5C10.5 9 8.5 7 6 7Z" fill="white"/>
<path d="M57.0607 12.5607C57.6464 11.9749 57.6464 11.0251 57.0607 10.4393L47.5147 0.893398C46.9289 0.307612 45.9792 0.307612 45.3934 0.893398C44.8076 1.47918 44.8076 2.42893 45.3934 3.01472L53.8787 11.5L45.3934 19.9853C44.8076 20.5711 44.8076 21.5208 45.3934 22.1066C45.9792 22.6924 46.9289 22.6924 47.5147 22.1066L57.0607 12.5607ZM1.5 11.5H3C3 9.82843 4.32843 8.5 6 8.5V7V5.5C2.67157 5.5 0 8.17157 0 11.5H1.5ZM6 7V8.5C7.67157 8.5 9 9.82843 9 11.5H10.5H12C12 8.17157 9.32843 5.5 6 5.5V7ZM10.5 11.5H9C9 13.1716 7.67157 14.5 6 14.5V16V17.5C9.32843 17.5 12 14.8284 12 11.5H10.5ZM6 16V14.5C4.32843 14.5 3 13.1716 3 11.5H1.5H0C0 14.8284 2.67157 17.5 6 17.5V16ZM10.5 11.5V13H56V11.5V10H10.5V11.5Z" fill="#FFCC00"/>
</svg>
