<svg width="83" height="100" viewBox="0 0 83 100" fill="none" xmlns="http://www.w3.org/2000/svg">
<path d="M8.08824 2C4.70588 2 2 3.94924 2 6.38579C2 8.82233 4.70588 10.7716 8.08824 10.7716C11.4706 10.7716 14.1765 8.82233 14.1765 6.38579C14.1765 3.94924 11.4706 2 8.08824 2Z" fill="white"/>
<path d="M69.9393 99.0607C70.5251 99.6464 71.4749 99.6464 72.0607 99.0607L81.6066 89.5147C82.1924 88.9289 82.1924 87.9792 81.6066 87.3934C81.0208 86.8076 80.0711 86.8076 79.4853 87.3934L71 95.8787L62.5147 87.3934C61.9289 86.8076 60.9792 86.8076 60.3934 87.3934C59.8076 87.9792 59.8076 88.9289 60.3934 89.5147L69.9393 99.0607ZM2 6.38579H3.5C3.5 5.76647 3.83918 5.08216 4.65249 4.49628C5.46635 3.90999 6.67255 3.5 8.08824 3.5V2V0.5C6.12156 0.5 4.28365 1.06463 2.89898 2.0621C1.51376 3.05997 0.5 4.56855 0.5 6.38579H2ZM8.08824 2V3.5C9.50392 3.5 10.7101 3.90999 11.524 4.49628C12.3373 5.08216 12.6765 5.76647 12.6765 6.38579H14.1765H15.6765C15.6765 4.56855 14.6627 3.05997 13.2775 2.0621C11.8928 1.06463 10.0549 0.5 8.08824 0.5V2ZM14.1765 6.38579H12.6765C12.6765 7.0051 12.3373 7.68941 11.524 8.2753C10.7101 8.86158 9.50392 9.27157 8.08824 9.27157V10.7716V12.2716C10.0549 12.2716 11.8928 11.7069 13.2775 10.7095C14.6627 9.7116 15.6765 8.20302 15.6765 6.38579H14.1765ZM8.08824 10.7716V9.27157C6.67255 9.27157 5.46635 8.86158 4.65249 8.2753C3.83918 7.68941 3.5 7.0051 3.5 6.38579H2H0.5C0.5 8.20302 1.51376 9.7116 2.89898 10.7095C4.28365 11.7069 6.12156 12.2716 8.08824 12.2716V10.7716ZM14.1765 6.38579V7.88579H51V6.38579V4.88579H14.1765V6.38579ZM71 26.3858H69.5V98H71H72.5V26.3858H71ZM51 6.38579V7.88579C61.2173 7.88579 69.5 16.1685 69.5 26.3858H71H72.5C72.5 14.5117 62.8741 4.88579 51 4.88579V6.38579Z" fill="#FFCC00"/>
</svg>
