<svg width="24" height="43" viewBox="0 0 24 43" fill="none" xmlns="http://www.w3.org/2000/svg">
<path d="M12 1.5C9.5 1.5 7.5 3.5 7.5 6C7.5 8.5 9.5 10.5 12 10.5C14.5 10.5 16.5 8.5 16.5 6C16.5 3.5 14.5 1.5 12 1.5Z" fill="white"/>
<path d="M10.9393 42.0607C11.5251 42.6464 12.4749 42.6464 13.0607 42.0607L22.6066 32.5147C23.1924 31.9289 23.1924 30.9792 22.6066 30.3934C22.0208 29.8076 21.0711 29.8076 20.4853 30.3934L12 38.8787L3.51472 30.3934C2.92893 29.8076 1.97918 29.8076 1.3934 30.3934C0.807612 30.9792 0.807612 31.9289 1.3934 32.5147L10.9393 42.0607ZM7.5 6H9C9 4.32843 10.3284 3 12 3V1.5V0C8.67157 0 6 2.67157 6 6H7.5ZM12 1.5V3C13.6716 3 15 4.32843 15 6H16.5H18C18 2.67157 15.3284 0 12 0V1.5ZM16.5 6H15C15 7.67157 13.6716 9 12 9V10.5V12C15.3284 12 18 9.32843 18 6H16.5ZM12 10.5V9C10.3284 9 9 7.67157 9 6H7.5H6C6 9.32843 8.67157 12 12 12V10.5ZM12 10.5H10.5V41H12H13.5V10.5H12Z" fill="#FFCC00"/>
</svg>
