<svg width="143" height="142" viewBox="0 0 143 142" fill="none" xmlns="http://www.w3.org/2000/svg">
<path d="M71.5219 141.388H71.211C32.3279 141.388 0.693176 109.744 0.693176 70.8496V70.5386C0.693176 31.644 32.3279 0 71.211 0L71.5219 0C110.405 0 142.04 31.644 142.04 70.5386V70.8496C142.04 109.744 110.405 141.388 71.5219 141.388ZM71.211 4.78584C34.9641 4.78584 5.47761 34.281 5.47761 70.5386V70.8496C5.47761 107.107 34.9641 136.602 71.211 136.602H71.5219C107.769 136.602 137.255 107.107 137.255 70.8496V70.5386C137.255 34.281 107.769 4.78584 71.5219 4.78584H71.211Z" fill="#1877F2"/>
<path d="M80.8755 54.8409V69.7201H99.2765L96.3627 89.7632H80.8755V135.942C77.7704 136.373 74.5936 136.597 71.3689 136.597C67.6466 136.597 63.9913 136.301 60.4316 135.726L60.4316 89.7632H43.4612V69.7201H60.4316V51.5148C60.4316 40.2202 69.5843 31.0601 80.8803 31.0601V31.0696C80.9138 31.0696 80.9425 31.0601 80.976 31.0601H99.2812V48.3944H87.3202C83.7653 48.3944 80.8803 51.2802 80.8803 54.8361L80.8755 54.8409Z" fill="#1877F2"/>
</svg>
