<svg width="25" height="25" viewBox="0 0 25 25" fill="none" xmlns="http://www.w3.org/2000/svg">
<path d="M12.5275 25H12.4725C5.59523 25 0 19.4048 0 12.5275L0 12.4725C0 5.59524 5.59523 0 12.4725 0L12.5275 0C19.4048 0 25 5.59524 25 12.4725V12.5275C25 19.4048 19.4048 25 12.5275 25ZM12.4725 0.846224C6.0615 0.846224 0.846224 6.06151 0.846224 12.4725V12.5275C0.846224 18.9385 6.0615 24.1538 12.4725 24.1538H12.5275C18.9385 24.1538 24.1538 18.9385 24.1538 12.5275V12.4725C24.1538 6.06151 18.9385 0.846224 12.5275 0.846224H12.4725Z" fill="white"/>
<path d="M14.1819 9.69707V12.328H17.4364L16.9211 15.872H14.1819V24.0372C13.6327 24.1133 13.0708 24.1531 12.5004 24.1531C11.8421 24.1531 11.1955 24.1007 10.5659 23.9991V15.872H7.56439L7.56439 12.328H10.5659V9.10895C10.5659 7.11186 12.1848 5.49219 14.1827 5.49219V5.49387C14.1886 5.49387 14.1937 5.49219 14.1996 5.49219H17.4373V8.55721H15.3217C14.693 8.55721 14.1827 9.06748 14.1827 9.69622L14.1819 9.69707Z" fill="white"/>
</svg>
