<svg width="25" height="25" viewBox="0 0 25 25" fill="none" xmlns="http://www.w3.org/2000/svg">
<path d="M12.5275 25H12.4725C5.59524 25 0 19.4048 0 12.5275L0 12.4725C0 5.59524 5.59524 0 12.4725 0L12.5275 0C19.4048 0 25 5.59524 25 12.4725V12.5275C25 19.4048 19.4048 25 12.5275 25ZM12.4725 0.846224C6.0615 0.846224 0.846224 6.06151 0.846224 12.4725V12.5275C0.846224 18.9385 6.0615 24.1538 12.4725 24.1538H12.5275C18.9385 24.1538 24.1538 18.9385 24.1538 12.5275V12.4725C24.1538 6.06151 18.9385 0.846224 12.5275 0.846224H12.4725Z" fill="white"/>
<path d="M16.2373 5.33691H8.76346C6.69868 5.33691 5.01892 7.01667 5.01892 9.08146L5.01892 15.919C5.01892 17.9837 6.69868 19.6635 8.76346 19.6635H16.2373C18.3021 19.6635 19.9819 17.9837 19.9819 15.919V9.08146C19.9819 7.01667 18.3021 5.33691 16.2373 5.33691ZM6.33988 9.08146C6.33988 7.74527 7.42727 6.65787 8.76346 6.65787H16.2373C17.5735 6.65787 18.6609 7.74527 18.6609 9.08146V15.919C18.6609 17.2551 17.5735 18.3425 16.2373 18.3425H8.76346C7.42727 18.3425 6.33988 17.2551 6.33988 15.919L6.33988 9.08146Z" fill="white"/>
<path d="M12.5005 15.9822C14.4205 15.9822 15.9835 14.4201 15.9835 12.4992C15.9835 10.5782 14.4214 9.01611 12.5005 9.01611C10.5795 9.01611 9.0174 10.5782 9.0174 12.4992C9.0174 14.4201 10.5795 15.9822 12.5005 15.9822ZM12.5005 10.3379C13.6928 10.3379 14.6626 11.3077 14.6626 12.5C14.6626 13.6924 13.6928 14.6621 12.5005 14.6621C11.3081 14.6621 10.3384 13.6924 10.3384 12.5C10.3384 11.3077 11.3081 10.3379 12.5005 10.3379Z" fill="white"/>
<path d="M16.3059 9.57956C16.8229 9.57956 17.2444 9.15899 17.2444 8.6411C17.2444 8.12321 16.8238 7.70264 16.3059 7.70264C15.788 7.70264 15.3674 8.12321 15.3674 8.6411C15.3674 9.15899 15.788 9.57956 16.3059 9.57956Z" fill="white"/>
</svg>
