<svg width="142" height="142" viewBox="0 0 142 142" fill="none" xmlns="http://www.w3.org/2000/svg">
<path d="M70.8288 141.388H70.5178C31.6347 141.388 0 109.744 0 70.8496L0 70.5386C0 31.644 31.6347 0 70.5178 0L70.8288 0C109.712 0 141.347 31.644 141.347 70.5386V70.8496C141.347 109.744 109.712 141.388 70.8288 141.388ZM70.5178 4.78584C34.2709 4.78584 4.78444 34.281 4.78444 70.5386V70.8496C4.78444 107.107 34.2709 136.602 70.5178 136.602H70.8288C107.076 136.602 136.562 107.107 136.562 70.8496V70.5386C136.562 34.281 107.076 4.78584 70.8288 4.78584H70.5178Z" fill="url(#paint0_linear_84_206)"/>
<path d="M91.8037 30.1846H49.5476C37.8736 30.1846 28.3765 39.6845 28.3765 51.3619L28.3765 90.0316C28.3765 101.709 37.8736 111.209 49.5476 111.209H91.8037C103.478 111.209 112.975 101.709 112.975 90.0316V51.3619C112.975 39.6845 103.478 30.1846 91.8037 30.1846ZM35.845 51.3619C35.845 43.8051 41.993 37.6553 49.5476 37.6553H91.8037C99.3584 37.6553 105.506 43.8051 105.506 51.3619V90.0316C105.506 97.5884 99.3584 103.738 91.8037 103.738H49.5476C41.993 103.738 35.845 97.5884 35.845 90.0316V51.3619Z" fill="url(#paint1_linear_84_206)"/>
<path d="M70.6757 90.3903C81.5316 90.3903 90.3685 81.5556 90.3685 70.6917C90.3685 59.8278 81.5364 50.9932 70.6757 50.9932C59.8151 50.9932 50.983 59.8278 50.983 70.6917C50.983 81.5556 59.8151 90.3903 70.6757 90.3903ZM70.6757 58.4687C77.417 58.4687 82.9 63.9533 82.9 70.6965C82.9 77.4398 77.417 82.9244 70.6757 82.9244C63.9345 82.9244 58.4515 77.4398 58.4515 70.6965C58.4515 63.9533 63.9345 58.4687 70.6757 58.4687Z" fill="url(#paint2_linear_84_206)"/>
<path d="M92.1914 54.1755C95.1146 54.1755 97.4973 51.797 97.4973 48.868C97.4973 45.9391 95.1194 43.5605 92.1914 43.5605C89.2633 43.5605 86.8854 45.9391 86.8854 48.868C86.8854 51.797 89.2633 54.1755 92.1914 54.1755Z" fill="url(#paint3_linear_84_206)"/>
<defs>
<linearGradient id="paint0_linear_84_206" x1="20.6783" y1="120.704" x2="120.698" y2="20.7138" gradientUnits="userSpaceOnUse">
<stop stop-color="#FAAD4F"/>
<stop offset="0.35" stop-color="#DD2A7B"/>
<stop offset="0.62" stop-color="#9537B0"/>
<stop offset="1" stop-color="#515BD4"/>
</linearGradient>
<linearGradient id="paint1_linear_84_206" x1="35.4813" y1="105.897" x2="105.886" y2="35.5176" gradientUnits="userSpaceOnUse">
<stop stop-color="#FAAD4F"/>
<stop offset="0.35" stop-color="#DD2A7B"/>
<stop offset="0.62" stop-color="#9537B0"/>
<stop offset="1" stop-color="#515BD4"/>
</linearGradient>
<linearGradient id="paint2_linear_84_206" x1="56.7578" y1="84.6185" x2="84.5971" y2="56.7827" gradientUnits="userSpaceOnUse">
<stop stop-color="#FAAD4F"/>
<stop offset="0.35" stop-color="#DD2A7B"/>
<stop offset="0.62" stop-color="#9537B0"/>
<stop offset="1" stop-color="#515BD4"/>
</linearGradient>
<linearGradient id="paint3_linear_84_206" x1="88.4404" y1="52.6201" x2="95.9446" y2="45.1181" gradientUnits="userSpaceOnUse">
<stop stop-color="#FAAD4F"/>
<stop offset="0.35" stop-color="#DD2A7B"/>
<stop offset="0.62" stop-color="#9537B0"/>
<stop offset="1" stop-color="#515BD4"/>
</linearGradient>
</defs>
</svg>
