<?xml version="1.0" encoding="UTF-8"?>
<!-- Generator: Adobe Illustrator 27.4.0, SVG Export Plug-In . SVG Version: 6.00 Build 0)  -->
<svg xmlns="http://www.w3.org/2000/svg" xmlns:xlink="http://www.w3.org/1999/xlink" version="1.1" id="Шар_1" x="0px" y="0px" viewBox="0 0 1000 357.4" style="enable-background:new 0 0 1000 357.4;" xml:space="preserve">
<style type="text/css">
	.st0{fill:#58595B;}
	.st1{fill:#FBD105;}
</style>
<g>
	<g id="XMLID_3659_">
		<path id="XMLID_5381_" class="st0" d="M277,91.7V50.5h-21.6v41.2h-7.2V4.3h7.2V44H277V4.3h7.2v87.3H277z"></path>
		<path id="XMLID_5383_" class="st0" d="M330.8,91.7L326,67.8h-20.4L301,91.7h-7.8l19.5-87.3h6.8l19.1,87.3H330.8z M315.8,17.3    l-8.7,43.9h17.5L315.8,17.3z"></path>
		<path id="XMLID_5386_" class="st0" d="M383,109V91.7h-35.4V4.3h7.2v80.8h21.6V4.3h7.2v80.8h6.4V109H383z"></path>
		<path id="XMLID_5388_" class="st0" d="M402.1,91.7V4.3h7.2v87.3H402.1z"></path>
		<path id="XMLID_5390_" class="st0" d="M456.6,87.5c-2.9,3.2-7.5,5.1-13.1,5.1c-5.6,0-10.1-2-13-5.1c-5.3-5.6-6.1-11.8-6.1-39.5    s0.9-33.8,6.1-39.5c2.9-3.2,7.4-5.1,13-5.1c5.6,0,10.2,2,13.1,5.1c5.3,5.6,6.1,11.8,6.1,39.5S461.9,81.9,456.6,87.5z M451.4,13.1    c-1.7-2-4.4-3.2-7.8-3.2c-3.4,0-6,1.2-7.7,3.2c-3.6,4.2-4.2,9.3-4.2,35s0.6,30.8,4.2,35c1.7,2,4.3,3.2,7.7,3.2    c3.4,0,6.1-1.2,7.8-3.2c3.6-4.2,4.2-9.3,4.2-35S454.9,17.2,451.4,13.1z"></path>
		<path id="XMLID_5393_" class="st0" d="M506.7,91.7V50.5h-21.6v41.2h-7.2V4.3h7.2V44h21.6V4.3h7.2v87.3H506.7z"></path>
		<path id="XMLID_5395_" class="st0" d="M560.5,91.7l-4.8-23.9h-20.4l-4.7,23.9h-7.8l19.5-87.3h6.7l19.1,87.3H560.5z M545.6,17.3    l-8.7,43.9h17.5L545.6,17.3z"></path>
		<path id="XMLID_5398_" class="st0" d="M610,91.7V10.8h-17.4v39.6c0,38-8.7,41.2-18.6,41.2h-2.1v-6.5h1c6.5,0,12.9-1.7,12.9-36.3    V4.3h31.5v87.3H610z"></path>
		<path id="XMLID_5400_" class="st0" d="M651.3,91.7h-17.2V4.3h7.2V43h9.9c12.4,0,18.9,6,18.9,24.4    C670.2,87.9,661.7,91.7,651.3,91.7z M651.5,49.5h-10.2v35.7h10.2c8.7,0,11.4-6.5,11.4-17.9C662.9,55.9,660.2,49.5,651.5,49.5z"></path>
		<path id="XMLID_5403_" class="st0" d="M713.1,91.7V50.5h-21.6v41.2h-7.2V4.3h7.2V44h21.6V4.3h7.2v87.3H713.1z"></path>
		<path id="XMLID_5405_" class="st0" d="M737.3,91.7V4.3h30.4v6.5h-23.2v33.8h20v6.5h-20v34h23.2v6.5H737.3z"></path>
		<path id="XMLID_5407_" class="st0" d="M282,222.2l-3.6-17.3h-20.2l-3.4,17.3h-14.5l21.5-87.3h13.4l21.2,87.3H282z M268.4,155.9    l-7.5,36.5h15L268.4,155.9z"></path>
		<path id="XMLID_5410_" class="st0" d="M335.2,222.2V184h-17.1v38.1h-13.7v-87.3h13.7v36.8h17.1v-36.8H349v87.3H335.2z"></path>
		<path id="XMLID_5412_" class="st0" d="M387.2,147.2v74.9h-13.7v-74.9h-14.6v-12.4h43v12.4H387.2z"></path>
		<path id="XMLID_5414_" class="st0" d="M411.9,222.2v-87.3h13.7v53.5l19.5-53.5h12.3v87.3h-13.7v-53.5L424,222.2H411.9z"></path>
		<path id="XMLID_5416_" class="st0" d="M472,222.2v-87.3h13.7v87.3H472z M507.2,222.2L486,176.7l19.6-41.8h14.5l-20,41.2l22.3,46.1    H507.2z"></path>
		<path id="XMLID_5419_" class="st0" d="M567.2,215.7c-3.6,4.3-8.8,7.5-16.9,7.5c-8.1,0-13.4-3.2-16.9-7.5c-5.8-7-6.4-16.4-6.4-37.2    s0.6-30.2,6.4-37.2c3.6-4.3,8.8-7.5,16.9-7.5c8.1,0,13.4,3.2,16.9,7.5c5.9,6.9,6.4,16.4,6.4,37.2S573,208.8,567.2,215.7z     M556.8,149.6c-1.2-2-3.3-3.3-6.6-3.3c-3.3,0-5.3,1.3-6.5,3.3c-2.6,4.2-3.1,13-3.1,28.9s0.5,24.8,3.1,28.9c1.2,2,3.2,3.3,6.5,3.3    c3.3,0,5.4-1.4,6.6-3.3c2.6-4.2,3-13,3-28.9S559.4,153.7,556.8,149.6z"></path>
		<path id="XMLID_5422_" class="st0" d="M607.9,187.9h-8.2v34.2h-13.7v-87.3h22c15.8,0,22.4,8.3,22.4,26.6S623.7,187.9,607.9,187.9z     M607.4,147.2h-7.7v28.3h7.7c7.4,0,9.2-5.3,9.2-14.1C616.6,152.6,614.7,147.2,607.4,147.2z"></path>
		<path id="XMLID_5425_" class="st0" d="M663.1,207.3c-3.9,12.3-8.9,14.8-22.9,14.8v-12.3c7.6,0,10.3-2.1,12.3-9l2-7.1l-19.1-59h15    l10.5,40.3l10.4-40.3h15L663.1,207.3z"></path>
		<path id="XMLID_5427_" class="st0" d="M724.8,222.2v-74.9h-17.2v74.9h-13.7v-87.3h44.6v87.3H724.8z"></path>
		<path id="XMLID_5429_" class="st0" d="M792,239.7v-17.5h-38.8v-87.3H767v74.9h16.9v-74.9h13.7v74.9h7.4v29.9H792z"></path>
		<path id="XMLID_5431_" class="st0" d="M815.4,222.2v-87.3h13.7v87.3H815.4z"></path>
		<path id="XMLID_5433_" class="st0" d="M843.9,222.2v-87.3h13.7v53.5l19.5-53.5h12.3v87.3h-13.7v-53.5L856,222.2H843.9z     M866.6,129.3c-8.1,0-15.3-3.4-15.7-14.2h9.2c0.2,4.2,3.1,5.6,6.5,5.6c3.4,0,6.3-1.5,6.5-5.6h9.2    C881.9,125.9,874.6,129.3,866.6,129.3z"></path>
		<path id="XMLID_5436_" class="st0" d="M934.9,222.2V184h-17v38.1h-13.7v-87.3h13.7v36.8h17v-36.8h13.7v87.3H934.9z"></path>
		<path id="XMLID_5438_" class="st0" d="M963.3,222.2v-87.3h36.7v12.4h-22.9V172h19.7v12.4h-19.7v25.4h22.9v12.4H963.3z"></path>
		<path id="XMLID_5440_" class="st0" d="M269,352.7h-22v-87.3h40.6v12.3h-26.9v22h8.2c15.8,0,22.4,8.2,22.4,26.5    C291.4,344.3,284.8,352.7,269,352.7z M268.5,311.9h-7.7v28.3h7.7c7.4,0,9.2-5.4,9.2-14.2C277.7,317.2,275.9,311.9,268.5,311.9z"></path>
		<path id="XMLID_5443_" class="st0" d="M303.6,352.7v-87.3h13.7v38.3h8.8c0.1-16.9,1.1-25.4,6.4-31.8c3.6-4.3,8.8-7.5,16.9-7.5    c8.1,0,13.4,3.2,16.9,7.5c5.9,6.9,6.4,16.4,6.4,37.2c0,20.7-0.5,30.3-6.4,37.2c-3.6,4.3-8.8,7.5-16.9,7.5    c-8.1,0-13.4-3.2-16.9-7.5c-5.1-6.1-6.3-14.2-6.4-30.3h-8.8v36.8H303.6z M356.1,280c-1.2-2-3.3-3.3-6.6-3.3    c-3.3,0-5.3,1.3-6.5,3.3c-2.6,4.2-3.1,13-3.1,28.9c0,15.9,0.5,24.8,3.1,28.9c1.2,2,3.2,3.3,6.5,3.3c3.3,0,5.4-1.4,6.6-3.3    c2.6-4.2,2.9-13,2.9-28.9C359,293.1,358.6,284.2,356.1,280z"></path>
		<path id="XMLID_5446_" class="st0" d="M407.2,318.4H399v34.2h-13.7v-87.3h22c15.8,0,22.4,8.3,22.4,26.6    C429.7,310.2,423,318.4,407.2,318.4z M406.7,277.7H399V306h7.7c7.4,0,9.2-5.3,9.2-14.1C415.9,283.1,414.1,277.7,406.7,277.7z"></path>
		<path id="XMLID_5449_" class="st0" d="M479.3,346.2c-3.6,4.3-8.8,7.5-16.9,7.5c-8.1,0-13.4-3.2-16.9-7.5c-5.8-7-6.4-16.4-6.4-37.2    c0-20.7,0.6-30.2,6.4-37.2c3.6-4.3,8.8-7.5,16.9-7.5c8.1,0,13.4,3.2,16.9,7.5c5.9,6.9,6.4,16.4,6.4,37.2    C485.7,329.7,485.2,339.3,479.3,346.2z M469,280c-1.2-2-3.3-3.3-6.6-3.3c-3.3,0-5.3,1.3-6.5,3.3c-2.6,4.2-3.1,13-3.1,28.9    c0,15.9,0.5,24.8,3.1,28.9c1.2,2,3.2,3.3,6.5,3.3c3.3,0,5.4-1.4,6.6-3.3c2.6-4.2,2.9-13,2.9-28.9C472,293.1,471.6,284.2,469,280z"></path>
		<path id="XMLID_5452_" class="st0" d="M533.8,340.1c-3.3,10.9-8.3,12.5-17.8,12.5v-6.5c6.6,0,9.4-1.5,11.7-9.1l3.7-12.5    l-18.1-59.2h7.8l13.9,49.1l13.5-49.1h7.8L533.8,340.1z"></path>
		<path id="XMLID_5454_" class="st0" d="M565.1,352.7v-87.3h7.2v87.3H565.1z M598.9,352.7l-26.4-45.5l24.5-41.8h8.1L580,306.8    l27.2,45.9H598.9z"></path>
		<path id="XMLID_5457_" class="st0" d="M634.2,314h-9.9v38.6h-7.2v-87.3h17.2c10.3,0,18.9,3.9,18.9,24.4    C653.1,310.2,644.5,314,634.2,314z M633.9,271.8h-9.6v35.7h9.6c7.1,0,12-3.1,12-17.8C645.9,275,641,271.8,633.9,271.8z"></path>
		<path id="XMLID_5460_" class="st0" d="M692.1,352.7l-4.8-23.9H667l-4.7,23.9h-7.8l19.5-87.3h6.7l19.1,87.3H692.1z M677.2,278.3    l-8.7,43.9H686L677.2,278.3z"></path>
		<path id="XMLID_5463_" class="st0" d="M700.2,256.5v-7.7h7.7v7.7H700.2z M708.9,352.7v-87.3h7.2v87.3H708.9z M717.2,256.5v-7.7    h7.7v7.7H717.2z"></path>
		<path id="XMLID_5467_" class="st0" d="M761.9,352.7v-41.2h-21.6v41.2h-7.2v-87.3h7.2v39.6h21.6v-39.6h7.2v87.3H761.9z"></path>
		<path id="XMLID_5469_" class="st0" d="M786.1,352.7v-87.3h7.2v68.1l23.1-68.1h7.2v87.3h-7.2v-68.1l-23.2,68.1H786.1z"></path>
	</g>
	<polygon id="XMLID_4882_" class="st1" points="0,356.8 136,0.2 181,0.2 181,356.8  "></polygon>
</g>
</svg>
