<svg width="13" height="13" viewBox="0 0 13 13" fill="none" xmlns="http://www.w3.org/2000/svg">
<g clip-path="url(#clip0_78_198)">
<path d="M5.14717 2.30599C4.98265 1.8947 4.5843 1.625 4.14132 1.625H2.65132C2.0845 1.625 1.625 2.08439 1.625 2.6512C1.625 7.46916 5.53084 11.375 10.3488 11.375C10.9156 11.375 11.375 10.9155 11.375 10.3486L11.3753 8.85839C11.3753 8.41541 11.1056 8.01713 10.6943 7.85261L9.26625 7.28159C8.8968 7.13381 8.47615 7.20032 8.17047 7.45506L7.8019 7.76245C7.37147 8.12115 6.73813 8.09262 6.34194 7.69643L5.30412 6.65766C4.90793 6.26146 4.87865 5.62864 5.23735 5.1982L5.54468 4.82966C5.79942 4.52398 5.86652 4.10321 5.71873 3.73376L5.14717 2.30599Z" stroke="#121212" stroke-opacity="0.7" stroke-width="1.5" stroke-linecap="round" stroke-linejoin="round"/>
</g>
<defs>
<clipPath id="clip0_78_198">
<rect width="13" height="13" fill="white"/>
</clipPath>
</defs>
</svg>
