<svg width="635" height="96" viewBox="0 0 635 96" fill="none" xmlns="http://www.w3.org/2000/svg">
<path d="M68.5476 52.7408C70.9869 41.3142 63.6979 30.0743 52.2672 27.636C40.8365 25.1976 29.5927 32.484 27.1535 43.9106C24.7142 55.3372 32.0032 66.577 43.4339 69.0154C54.8646 71.4538 66.1084 64.1674 68.5476 52.7408Z" fill="#0057B8"/>
<path d="M37.1884 65.2566L24.3713 93.9014L71.4754 93.816L58.7266 65.2907L37.1884 65.2566Z" fill="#0057B8"/>
<path d="M36.5568 27.3993L23.7568 1.91077L70.8438 1.99607L58.112 27.3652L36.5568 27.3993Z" fill="#0057B8"/>
<path d="M29.6789 37.2603L1.02393 24.4648L1.14339 71.535L29.6618 58.7908L29.6789 37.2603Z" fill="#0057B8"/>
<path d="M68.113 37.2944L94.4981 24.4648L94.4469 71.535L68.1642 58.8249L68.113 37.2944Z" fill="#0057B8"/>
<path d="M2.90132 69.6241V35.0764V25.6589L29.7301 39.0686L32.0512 37.1407L0.170654 21.3938V32.7562V73.5992V73.9916L32.0512 58.4153L29.7301 56.5728L2.90132 69.6241Z" fill="url(#paint0_linear)"/>
<path d="M25.8561 2.9172H60.4161H69.8369L56.4225 29.7365L58.3511 32.0567L74.1036 0.1875H62.7372H21.8796H21.4871L37.0689 32.0567L38.9121 29.7365L25.8561 2.9172Z" fill="url(#paint1_linear)"/>
<path d="M70.0756 92.98H35.2767H25.9754L39.3044 65.973L37.3588 63.6357L21.5039 95.7267H32.9556H74.0863H74.4788L58.7946 63.6357L56.9343 65.973L70.0756 92.98Z" fill="url(#paint2_linear)"/>
<path d="M93.0134 25.7613V60.3261V69.7265L66.1846 56.3168L63.8635 58.2447L95.7441 73.9916V62.6293V21.7862V21.3938L63.8635 36.6289L66.1846 38.8297L93.0134 25.7613Z" fill="url(#paint3_linear)"/>
<path d="M48.3669 64.6426C48.2645 64.7279 48.1621 64.8302 48.0768 64.9155C48.0256 64.8644 47.9744 64.7961 47.9061 64.7449L42.2571 68.3277C43.1787 70.9038 46.7627 70.682 46.7627 70.682L47.5136 70.6309H47.5989L47.616 70.5967L47.872 70.4944L47.9915 70.4432L48.0085 70.4773L48.0939 70.4944L48.8107 70.5967C48.8107 70.5967 52.2752 71.0915 53.4528 68.6348L48.3669 64.6426Z" fill="url(#paint4_radial)"/>
<path d="M33.5701 30.5896L33.5871 31.3744V31.4256L33.6554 31.4767L34.321 31.8691C34.321 31.8691 37.5125 33.7629 39.6458 31.9374C39.7823 31.6644 39.697 31.1185 38.8437 30.6408C40.2943 30.9308 41.9327 31.0332 42.8885 29.7024C42.9909 28.8324 41.8645 28.5082 41.489 28.457C42.5642 28.2864 44.0661 27.2457 43.3834 26.1709H43.3663" fill="url(#paint5_linear)"/>
<path d="M27.6819 39.1878L28.0403 39.8702L28.0574 39.9043H28.1427L28.9107 39.9555C28.9107 39.9555 32.6141 40.2114 33.6893 37.6182C33.6723 37.3111 33.3651 36.8675 32.3923 36.8163C33.8088 36.4239 35.3277 35.7756 35.5667 34.1549C35.2765 33.336 34.116 33.5407 33.7576 33.6772C34.6451 33.0459 35.4984 31.4252 34.4061 30.7939C34.4061 30.7939 34.4061 30.811 34.3891 30.811" fill="url(#paint6_linear)"/>
<path d="M26.3337 49.5441L26.9652 49.9877L26.9993 50.0218L27.0847 49.9877L27.8015 49.6806C27.8015 49.6806 31.2148 48.2305 31.01 45.4325C30.8564 45.1596 30.3956 44.9036 29.4911 45.3131C30.5833 44.3236 31.6415 43.0782 31.1295 41.5086C30.498 40.9115 29.5593 41.6109 29.2863 41.901C29.7983 40.9456 29.8324 39.103 28.5695 39.0348V39.0518" fill="url(#paint7_linear)"/>
<path d="M29.6616 59.4389H30.4467H30.4979L30.5491 59.3707L30.9587 58.7224C30.9587 58.7224 32.9555 55.5832 31.1976 53.3994C30.9246 53.263 30.3955 53.3141 29.8835 54.1501C30.2078 52.717 30.3784 51.0792 29.0643 50.0897C28.211 49.9532 27.8355 51.0792 27.7672 51.4545C27.6307 50.3797 26.6409 48.8443 25.5486 49.4926V49.5096" fill="url(#paint8_linear)"/>
<path d="M38.195 65.9219L38.7752 65.393L38.8094 65.3589L38.7923 65.2736L38.6558 64.5059C38.6558 64.5059 38.0072 60.8549 35.2254 60.4284C34.9352 60.5137 34.5768 60.9232 34.7646 61.8786C34.0307 60.599 33.0579 59.2854 31.4024 59.4389C30.6856 59.9166 31.1635 60.9914 31.3683 61.3156C30.5491 60.6161 28.7742 60.1555 28.4158 61.3838H28.4328" fill="url(#paint9_linear)"/>
<path d="M45.5167 68.0205L45.9092 67.4575L45.9263 67.4234L45.8921 67.3552L45.6361 66.741C45.6361 66.741 44.3732 63.7554 41.9156 63.943C41.6767 64.0795 41.4548 64.489 41.7961 65.2738C40.9257 64.3354 39.8335 63.3971 38.434 63.8577C37.9049 64.4037 38.5193 65.2397 38.7583 65.4614C37.9049 65.0179 36.3007 64.9837 36.2153 66.0927H36.2324" fill="url(#paint10_linear)"/>
<path d="M62.3104 30.5383L62.2933 31.3231V31.3743L62.225 31.4255L61.5594 31.8179C61.5594 31.8179 58.385 33.7116 56.2858 31.8861C56.1493 31.6131 56.2346 31.0672 57.0709 30.5895C55.6373 30.8795 54.0159 30.9819 53.0602 29.6512C52.9578 28.7811 54.0672 28.4569 54.4426 28.4057C53.3845 28.2351 51.8997 27.1944 52.5824 26.1196H52.5994" fill="url(#paint11_linear)"/>
<path d="M68.1473 39.137L67.7889 39.8194L67.7718 39.8535H67.6865L66.9014 39.9218C66.9014 39.9218 63.2321 40.1777 62.174 37.5845C62.191 37.2774 62.4812 36.8338 63.454 36.7826C62.0545 36.3902 60.5526 35.7419 60.2966 34.1212C60.5868 33.3023 61.7302 33.507 62.0886 33.6435C61.2182 33.0122 60.3478 31.3915 61.4401 30.7603C61.4401 30.7603 61.4401 30.7773 61.4572 30.7773" fill="url(#paint12_linear)"/>
<path d="M69.4953 49.4755L68.8639 49.9191L68.8297 49.9532L68.7444 49.9191L68.0447 49.612C68.0447 49.612 64.6484 48.1618 64.8532 45.3639C64.9898 45.0909 65.4676 44.835 66.3551 45.2445C65.2799 44.255 64.2218 43.0095 64.7338 41.44C65.3652 40.8429 66.2868 41.5423 66.5428 41.8324C66.0479 40.877 65.9967 39.0344 67.2426 38.9662V38.9832" fill="url(#paint13_linear)"/>
<path d="M66.1844 59.3877H65.4164H65.3652L65.314 59.3195L64.9044 58.6712C64.9044 58.6712 62.9247 55.5321 64.6655 53.3483C64.9385 53.2118 65.4676 53.263 65.9796 54.099C65.6553 52.6659 65.4847 51.0281 66.7817 50.0385C67.6351 49.9021 68.0105 51.0281 68.0617 51.4034C68.1983 50.3286 69.1881 48.7931 70.2633 49.4414V49.4585" fill="url(#paint14_linear)"/>
<path d="M57.7365 65.8538L57.1733 65.342L57.1392 65.3079L57.1562 65.2226L57.2928 64.4549C57.2928 64.4549 57.9413 60.8039 60.689 60.3774C60.9792 60.4627 61.3376 60.8722 61.1498 61.8275C61.8666 60.548 62.8394 59.2343 64.4778 59.3879C65.1946 59.8656 64.7168 60.9404 64.512 61.2646C65.3312 60.5651 67.089 60.1044 67.4474 61.3328H67.4304" fill="url(#paint15_linear)"/>
<path d="M50.4831 67.9522L50.0906 67.3892L50.0735 67.355L50.1076 67.2868L50.3636 66.6726C50.3636 66.6726 51.6095 63.687 54.05 63.8747C54.289 64.0112 54.5108 64.4206 54.1695 65.2054C55.0228 64.2671 56.1151 63.3287 57.4975 63.7894C58.0265 64.3353 57.4121 65.1713 57.1732 65.3931C58.0095 64.9495 59.6137 64.9154 59.682 66.0243H59.6649" fill="url(#paint16_linear)"/>
<path d="M27.4771 56.2998C27.9037 56.8799 28.4328 57.6135 27.6648 58.1765C26.9992 58.6712 26.3507 58.0059 25.9411 57.4087C25.2755 56.5045 25.5485 55.8562 25.7533 55.5321C26.1459 55.4297 26.8285 55.3956 27.4771 56.2998Z" fill="url(#paint17_linear)"/>
<path d="M28.0233 56.7093C27.7161 56.2828 27.3577 56.8117 26.914 57.1358C26.4702 57.46 25.89 57.5965 26.2142 58.023C26.5214 58.4495 27.2212 58.5007 27.6649 58.1766C28.1086 57.8524 28.3305 57.1529 28.0233 56.7093Z" fill="url(#paint18_radial)"/>
<path d="M34.1333 64.6594C34.7307 65.0518 35.4987 65.5466 34.9867 66.3485C34.5429 67.0479 33.7067 66.6555 33.0923 66.2632C32.1536 65.649 32.1707 64.9665 32.2389 64.5741C32.5803 64.3353 33.1947 64.0453 34.1333 64.6594Z" fill="url(#paint19_linear)"/>
<path d="M34.7817 64.8473C34.338 64.5572 34.2014 65.1885 33.9113 65.6491C33.6212 66.1098 33.1262 66.4339 33.57 66.724C34.0137 67.014 34.6793 66.7922 34.9865 66.3316C35.2766 65.888 35.2425 65.1373 34.7817 64.8473Z" fill="url(#paint20_radial)"/>
<path d="M45.7385 69.897C45.4825 69.334 45.1582 68.6175 45.9092 68.2763C46.5577 67.9862 46.9844 68.6516 47.2404 69.2317C47.6329 70.1188 47.2916 70.6136 47.0697 70.8524C46.7113 70.8695 46.131 70.7842 45.7385 69.897Z" fill="url(#paint21_linear)"/>
<path d="M45.363 69.4533C45.5508 69.8799 45.9433 69.4875 46.37 69.2827C46.7966 69.0951 47.3086 69.078 47.1209 68.6686C46.9332 68.242 46.3529 68.0885 45.9262 68.2762C45.4825 68.4638 45.1753 69.0268 45.363 69.4533Z" fill="url(#paint22_radial)"/>
<path d="M48.8278 69.2488C49.118 68.7029 49.4934 67.9863 50.2273 68.3787C50.8588 68.7199 50.5857 69.4706 50.2956 70.0336C49.8348 70.9037 49.2374 70.9378 48.8961 70.9037C48.6572 70.6307 48.367 70.1189 48.8278 69.2488Z" fill="url(#paint23_linear)"/>
<path d="M48.9473 68.6687C48.7254 69.0781 49.2886 69.1464 49.6982 69.3682C50.1249 69.59 50.4491 69.9994 50.6539 69.59C50.8758 69.1805 50.6369 68.6175 50.2102 68.3957C49.8006 68.1739 49.1692 68.2592 48.9473 68.6687Z" fill="url(#paint24_radial)"/>
<path d="M29.7471 36.083C29.5935 36.7825 29.4229 37.6867 28.4842 37.482C27.665 37.3114 27.7333 36.3901 27.8698 35.6906C28.0917 34.5987 28.7402 34.3599 29.1327 34.2916C29.4911 34.5134 29.9861 34.9911 29.7471 36.083Z" fill="url(#paint25_linear)"/>
<path d="M29.7982 36.7654C29.9006 36.2366 29.2691 36.356 28.7401 36.2366C28.211 36.1342 27.7161 35.793 27.6137 36.3219C27.5113 36.8507 27.955 37.3967 28.4841 37.499C29.0302 37.6014 29.6958 37.2943 29.7982 36.7654Z" fill="url(#paint26_radial)"/>
<path d="M36.5737 28.6104C36.13 29.1734 35.5668 29.8899 34.8158 29.3098C34.1673 28.798 34.6281 27.9962 35.0718 27.4332C35.7716 26.546 36.4542 26.6313 36.8297 26.7337C37.0345 27.092 37.2564 27.7403 36.5737 28.6104Z" fill="url(#paint27_linear)"/>
<path d="M36.3179 29.2418C36.6422 28.8153 36.0278 28.6276 35.6011 28.3034C35.1744 27.9622 34.8843 27.4504 34.56 27.8769C34.2358 28.3034 34.3894 28.9859 34.816 29.3271C35.2427 29.6512 35.9766 29.6683 36.3179 29.2418Z" fill="url(#paint28_radial)"/>
<path d="M26.4533 45.8929C26.6069 46.5923 26.7946 47.4965 25.8559 47.6842C25.0367 47.8548 24.7295 46.9847 24.593 46.2852C24.3711 45.1934 24.8661 44.7157 25.1903 44.4939C25.5999 44.5621 26.2314 44.7839 26.4533 45.8929Z" fill="url(#paint29_linear)"/>
<path d="M26.7777 46.4899C26.6753 45.961 26.1292 46.3193 25.6001 46.4216C25.071 46.5411 24.4907 46.4216 24.5931 46.9505C24.6955 47.4794 25.327 47.8035 25.8561 47.6841C26.4022 47.5647 26.8972 47.0188 26.7777 46.4899Z" fill="url(#paint30_radial)"/>
<path d="M68.8981 56.4193C68.4544 56.9993 67.8912 57.733 68.7104 58.296C69.4101 58.7907 70.0757 58.1254 70.5194 57.5282C71.2021 56.624 70.929 55.9757 70.7072 55.6515C70.2976 55.5662 69.5978 55.515 68.8981 56.4193Z" fill="url(#paint31_linear)"/>
<path d="M68.3348 56.8459C68.659 56.4194 69.0345 56.9483 69.4953 57.2724C69.9561 57.5966 70.5535 57.7331 70.2292 58.1596C69.9049 58.5861 69.171 58.6373 68.7102 58.3131C68.2494 57.989 68.0105 57.2724 68.3348 56.8459Z" fill="url(#paint32_radial)"/>
<path d="M61.9517 64.7791C61.3202 65.1715 60.3474 65.6662 60.8936 66.4681C61.3714 67.1675 62.2418 66.7751 62.8733 66.3828C63.8632 65.7686 64.0168 65.0862 63.9314 64.6938C63.573 64.4549 62.9416 64.1649 61.9517 64.7791Z" fill="url(#paint33_linear)"/>
<path d="M61.2695 64.9836C61.7303 64.6936 61.8668 65.3248 62.1911 65.7855C62.4983 66.2461 62.8396 66.5703 62.3788 66.8603C61.901 67.1503 61.2183 66.9285 60.894 66.4679C60.5698 66.0073 60.7916 65.2737 61.2695 64.9836Z" fill="url(#paint34_radial)"/>
<path d="M66.5259 36.2196C66.6795 36.9191 66.8672 37.8233 67.84 37.6185C68.6934 37.4479 68.6251 36.5267 68.4715 35.8272C68.2326 34.7353 67.5499 34.4965 67.1574 34.4282C66.799 34.65 66.287 35.1106 66.5259 36.2196Z" fill="url(#paint35_linear)"/>
<path d="M66.4747 36.8848C66.3553 36.3559 67.0209 36.4754 67.5841 36.3559C68.1473 36.2536 68.6593 35.9124 68.7617 36.4412C68.8811 36.9701 68.4033 37.5161 67.8571 37.6184C67.2939 37.7379 66.5942 37.4137 66.4747 36.8848Z" fill="url(#paint36_radial)"/>
<path d="M59.4089 28.7471C59.8697 29.3101 60.467 30.0266 61.2521 29.4466C61.9347 28.9347 61.4569 28.1329 60.979 27.5699C60.2622 26.6827 59.5454 26.768 59.1358 26.8704C58.9139 27.2287 58.675 27.8599 59.4089 28.7471Z" fill="url(#paint37_linear)"/>
<path d="M59.6648 29.378C59.3235 28.9515 59.955 28.7638 60.4158 28.4397C60.8595 28.0985 61.1667 27.5867 61.508 28.0132C61.8494 28.4397 61.6958 29.1221 61.235 29.4633C60.7912 29.7704 60.0232 29.7875 59.6648 29.378Z" fill="url(#paint38_radial)"/>
<path d="M69.9732 46.0122C69.8196 46.7117 69.6148 47.6159 70.6047 47.8036C71.458 47.9742 71.7823 47.1041 71.9359 46.4046C72.1748 45.3128 71.6457 44.8351 71.3044 44.6133C70.8777 44.6815 70.2121 44.9204 69.9732 46.0122Z" fill="url(#paint39_linear)"/>
<path d="M69.6321 46.6263C69.7515 46.0975 70.3147 46.4557 70.8609 46.5581C71.4241 46.6775 72.0214 46.5581 71.919 47.087C71.7995 47.6159 71.151 47.94 70.5878 47.8206C70.0417 47.7012 69.5297 47.1382 69.6321 46.6263Z" fill="url(#paint40_radial)"/>
<path d="M48.1055 32.5854C47.3716 33.3702 46.9279 34.4109 46.9279 35.554C46.9791 38.0448 47.3034 42.0541 47.3204 44.562C47.3716 46.8822 46.4671 48.5712 45.5796 50.6867C45.2724 51.2839 44.9652 51.8469 44.6239 52.4269L43.8388 52.2393C42.9855 52.0687 42.593 51.2839 42.7636 50.482C42.9172 49.7655 43.4122 49.4413 44.146 49.4413L44.4874 49.4754L43.7194 43.2142C43.4634 40.5016 42.6783 37.4307 40.4938 35.8781C40.1183 35.6222 39.0431 35.3663 38.6165 35.1616V58.0057H43.7364C44.129 60.036 45.4772 61.2984 47.1327 62.5097C47.5252 62.7656 47.4228 62.6803 48.0884 63.1751C48.6516 62.7656 48.6516 62.7656 49.0442 62.5097C50.6996 61.2984 52.0479 60.036 52.4404 58.0057H57.5604V35.1787C57.1508 35.4004 56.0585 35.6393 55.6831 35.8952C53.4986 37.4477 52.7135 40.5186 52.4575 43.2313L51.6895 49.4925L52.0308 49.4584C52.7647 49.4584 53.2596 49.7825 53.4132 50.4991C53.5839 51.3009 53.1914 52.0857 52.338 52.2563L51.553 52.444C51.2287 51.8639 50.9044 51.2839 50.5972 50.7038C49.7098 48.5712 48.8052 46.8993 48.8564 44.579C48.8906 42.0882 49.1978 38.079 49.249 35.5711C49.2831 34.428 48.8394 33.3873 48.1055 32.5854ZM40.3743 38.3008C41.3983 39.4267 41.7396 41.5252 41.9444 43.0948L42.5759 48.1277C41.7738 48.503 41.33 49.2025 41.0911 50.0384H40.3743V38.3008ZM55.8196 38.3008V50.0384H55.1028C54.8639 49.2025 54.2495 48.503 53.618 48.1277L54.2495 43.0948C54.2836 41.5423 54.9663 39.4438 55.9903 38.3008H55.8196ZM48.1055 49.7484C48.5834 50.7891 48.754 51.4204 49.4879 52.8023C48.8052 53.007 48.5322 53.0582 48.1055 53.57C47.6618 53.0411 47.4058 53.007 46.7231 52.8023C47.5082 51.3009 47.6447 50.7721 48.1055 49.7484ZM40.3743 51.6933H41.0911C41.3812 52.717 42.2175 53.5359 43.3098 53.8259L44.0607 53.9965C43.8559 54.696 43.5828 55.259 43.5828 56.0097H40.3743V51.5227V51.6933ZM55.1028 51.5227H55.8196V56.0097H52.6111C52.6111 55.259 52.321 54.6789 52.1332 53.9965L52.8842 53.8259C53.9594 53.5359 54.8127 52.5634 55.1028 51.5227ZM45.9551 54.3377C46.9108 54.4742 47.1327 55.0713 47.1327 56.0097H45.682C45.682 55.3784 45.7844 54.9178 45.9551 54.3377ZM50.2388 54.3377C50.4095 54.9348 50.5119 55.3784 50.5119 56.0097H49.0442C49.0612 55.0713 49.2831 54.4571 50.2388 54.3377ZM45.6991 58.0057H47.3204V60.4795C46.45 59.6265 45.9892 59.217 45.6991 58.0057ZM48.8906 58.0057H50.5119C50.2218 59.2 49.761 59.6094 48.8906 60.4795V58.0057Z" fill="#FFDE00"/>
<path d="M37.154 29.5486L37.2735 28.815C37.2735 28.815 37.8025 25.2664 40.4991 24.891C40.7892 24.9764 41.1476 25.3687 40.994 26.3071C41.6596 25.0617 42.5812 23.7992 44.2025 23.9698C44.9364 24.4475 44.4927 25.4882 44.2879 25.7953C45.0729 25.1128 46.7967 24.7034 47.1892 25.8806H47.1721C47.6671 27.0748 46.0969 27.8766 45.0559 27.8766C45.4143 27.979 46.4383 28.542 46.2164 29.4121C45.1071 30.6234 43.554 30.231 42.2228 29.6851C42.9737 30.3163 42.9908 30.8964 42.8201 31.1523C40.5332 32.6707 37.7343 30.1969 37.7343 30.1969L37.154 29.6851L37.1199 29.651L37.154 29.5486Z" fill="url(#paint41_linear)"/>
<path d="M37.4782 29.4466L37.5636 28.8153C37.5636 28.8153 38.1438 25.625 40.4308 25.3179C40.6697 25.3861 40.9428 26.2392 40.8062 27.041C41.3694 26.0003 42.6665 24.2431 44.0318 24.3796C44.6462 24.789 44.2708 25.8297 44.1172 26.1027C44.7828 25.5397 46.5748 25.0449 46.899 26.0345C46.899 26.0345 46.899 26.0345 46.882 26.0345C47.2916 27.041 45.619 27.8088 44.7486 27.7917C45.0388 27.877 46.0286 28.4912 45.8409 29.2248C44.9193 30.2484 42.7689 29.6684 41.6425 29.2248C42.274 29.7537 42.6324 30.6408 42.4958 30.8626C40.5844 32.1421 37.9902 29.9755 37.9902 29.9755L37.4953 29.5489L37.4612 29.5148L37.4782 29.4466Z" fill="url(#paint42_linear)"/>
<path d="M37.5465 29.037C37.5465 29.037 44.4585 26.5461 44.578 26.8873C44.6292 27.2968 37.8366 29.8559 37.8366 29.8559L37.4612 29.5147L37.5465 29.037Z" fill="url(#paint43_linear)"/>
<path d="M30.3274 37.0386L30.0543 36.3391C30.0543 36.3391 28.7743 32.9782 30.9418 31.3404C31.2319 31.2721 31.7439 31.4427 32.0682 32.3299C32.0511 30.9139 32.2388 29.3613 33.7236 28.713C34.594 28.7813 34.7135 29.8902 34.6964 30.2655C35.0548 29.2931 36.3519 28.0818 37.2735 28.9348C37.2735 28.9348 37.2735 28.9348 37.2564 28.9519C38.2634 29.7537 37.3076 31.2209 36.386 31.7157C36.7444 31.6304 37.922 31.6133 38.1439 32.4834C37.7684 34.0701 36.2154 34.4966 34.7988 34.6842C35.7546 34.8719 36.0618 35.3667 36.0447 35.6738C34.7988 38.1134 31.1466 37.3116 31.1466 37.3116L30.3786 37.141L30.3274 37.1239V37.0386Z" fill="url(#paint44_linear)"/>
<path d="M30.5493 36.7995L30.3274 36.2023C30.3274 36.2023 29.2693 33.1314 31.1125 31.7495C31.3685 31.6983 32.017 32.3125 32.2901 33.0632C32.273 31.886 32.5461 29.7193 33.809 29.1734C34.5429 29.2246 34.7306 30.3335 34.7136 30.6235C35.0208 29.8046 36.3349 28.4909 37.12 29.2075C37.12 29.2075 37.12 29.2075 37.1029 29.2246C37.9562 29.907 36.864 31.3912 36.096 31.8007C36.4032 31.7325 37.5466 31.8007 37.7514 32.5173C37.4442 33.865 35.2938 34.411 34.0992 34.5645C34.9013 34.7181 35.6522 35.3152 35.6352 35.5711C34.577 37.6184 31.2661 37.0042 31.2661 37.0042L30.6176 36.8677H30.5834L30.5493 36.7995Z" fill="url(#paint45_linear)"/>
<path d="M30.4128 36.3903C30.4128 36.3903 35.2256 30.8456 35.4987 31.0844C35.7547 31.4256 31.0614 36.9703 31.0614 36.9703L30.5835 36.8509L30.4128 36.3903Z" fill="url(#paint46_linear)"/>
<path d="M26.9313 46.1659L26.4193 45.6029C26.4193 45.6029 23.9958 42.9585 25.4123 40.6212C25.6683 40.4506 26.1974 40.4164 26.8289 41.133C26.2998 39.8364 25.8902 38.318 27.0337 37.1579C27.8699 36.9019 28.399 37.8915 28.5014 38.2327C28.4673 37.192 29.2353 35.5883 30.4129 36.0319V36.0489C31.6417 36.4243 31.2833 38.1303 30.6177 38.9322C30.9249 38.7274 32.0171 38.2668 32.5462 39.0004C32.7851 40.6212 31.4881 41.5766 30.2422 42.2761C31.1979 42.1054 31.6587 42.4467 31.7611 42.7367C31.4881 45.4493 27.8017 46.0635 27.8017 46.0635L27.0337 46.2H26.9825L26.9313 46.1659Z" fill="url(#paint47_linear)"/>
<path d="M27.0504 45.8416L26.6237 45.381C26.6237 45.381 24.5245 42.9072 25.7192 40.9452C25.924 40.7917 26.7603 41.1329 27.2893 41.73C26.8456 40.6381 26.2995 38.5226 27.2723 37.5501C27.972 37.3284 28.5523 38.2837 28.6547 38.5738C28.6376 37.7037 29.3885 35.9976 30.3613 36.373C30.3613 36.373 30.3613 36.373 30.3613 36.39C31.4024 36.7142 30.9416 38.4885 30.3784 39.1538C30.6344 38.9832 31.7267 38.6079 32.1704 39.2221C32.3752 40.5869 30.5661 41.8835 29.5251 42.4636C30.3272 42.31 31.2317 42.6001 31.3171 42.8389C31.0952 45.125 27.7843 45.7733 27.7843 45.7733L27.1357 45.8928H27.1016L27.0504 45.8416Z" fill="url(#paint48_linear)"/>
<path d="M26.7776 45.5345C26.7776 45.5345 29.2181 38.6079 29.5595 38.7444C29.9179 38.9662 27.5968 45.8416 27.5968 45.8416L27.1019 45.9099L26.7776 45.5345Z" fill="url(#paint49_linear)"/>
<path d="M27.8186 56.1464L27.153 55.8052C27.153 55.8052 23.9444 54.2015 24.4223 51.5059C24.593 51.25 25.0879 51.0283 25.9242 51.4718C24.9514 50.4482 24.0468 49.1686 24.6954 47.6844C25.378 47.1384 26.2314 47.8891 26.4532 48.1621C26.0607 47.2067 26.1972 45.4324 27.4431 45.4324V45.4494C28.7231 45.3641 29.0132 47.0873 28.6719 48.0768C28.8767 47.7697 29.73 46.9678 30.481 47.4455C31.2831 48.8786 30.4127 50.2264 29.4911 51.3353C30.3274 50.8235 30.8735 50.9941 31.0783 51.2159C31.7951 53.8603 28.5695 55.737 28.5695 55.737L27.9039 56.1294L27.8698 56.1464H27.8186Z" fill="url(#paint50_linear)"/>
<path d="M27.8187 55.8052L27.2555 55.5152C27.2555 55.5152 24.4053 53.9627 24.8149 51.7107C24.9515 51.506 25.856 51.506 26.5728 51.8813C25.7536 51.0283 24.5077 49.2369 25.0539 47.9915C25.6341 47.5308 26.5216 48.2133 26.7093 48.4521C26.368 47.6503 26.4704 45.7906 27.5285 45.7906V45.8077C28.6037 45.7224 28.8256 47.5479 28.5355 48.3839C28.7061 48.128 29.6107 47.3944 30.2421 47.8038C30.9248 48.998 29.696 50.8577 28.928 51.7789C29.6277 51.3524 30.5835 51.2842 30.7371 51.4889C31.3515 53.7068 28.4843 55.4981 28.4843 55.4981L27.9211 55.8223L27.8869 55.8394L27.8187 55.8052Z" fill="url(#paint51_linear)"/>
<path d="M27.443 55.6005C27.443 55.6005 27.2382 48.2644 27.5966 48.2644C28.0062 48.3326 28.3134 55.5834 28.3134 55.5834L27.8868 55.8222L27.443 55.6005Z" fill="url(#paint52_linear)"/>
<path d="M34.1673 63.9773L33.4164 64.0796C33.4164 64.0796 29.8494 64.5744 28.7401 62.0835C28.7401 61.7765 29.0302 61.3158 29.9689 61.2135C28.5865 60.9234 27.1187 60.3775 26.8286 58.7909C27.0846 57.9549 28.211 58.0914 28.5523 58.1937C27.6819 57.6307 26.7945 56.0953 27.8355 55.3787C27.8355 55.3787 27.8355 55.3958 27.8526 55.3958C28.8595 54.594 30.0713 55.8564 30.3444 56.863C30.3444 56.4877 30.6004 55.3446 31.4878 55.3105C32.9556 56.027 33.0068 57.6478 32.8702 59.0638C33.2628 58.1767 33.8089 57.989 34.1161 58.0743C36.1982 59.8486 34.611 63.2266 34.611 63.2266L34.2868 63.9261L34.2697 63.9602L34.1673 63.9773Z" fill="url(#paint53_linear)"/>
<path d="M33.9628 63.7041L33.3313 63.7894C33.3313 63.7894 30.1057 64.1135 29.1671 62.0321C29.1671 61.7762 29.918 61.2815 30.7031 61.1791C29.5425 60.9232 27.4945 60.1725 27.2556 58.8247C27.4775 58.1252 28.5868 58.1764 28.8769 58.2617C28.1431 57.784 27.1703 56.1974 28.0407 55.6003C28.0407 55.6003 28.0407 55.6003 28.0407 55.6173C28.894 54.9349 30.0887 56.3339 30.3276 57.1698C30.3276 56.8628 30.6519 55.7538 31.4028 55.7197C32.6487 56.3339 32.6828 58.5347 32.5804 59.746C32.9217 58.9953 33.6556 58.4153 33.9116 58.4835C35.6695 59.9678 34.3212 63.0558 34.3212 63.0558L34.0481 63.6529L34.0311 63.687L33.9628 63.7041Z" fill="url(#paint54_linear)"/>
<path d="M33.5532 63.7553C33.5532 63.7553 29.2353 57.8183 29.5255 57.6135C29.9009 57.4429 34.2529 63.2606 34.2529 63.2606L34.0311 63.7042L33.5532 63.7553Z" fill="url(#paint55_linear)"/>
<path d="M43.1785 68.4983L42.547 68.8907C42.547 68.8907 39.4921 70.7844 37.4612 68.9589C37.3417 68.6859 37.41 68.14 38.2292 67.6623C36.8468 67.9523 35.2937 68.0547 34.3721 66.724C34.2697 65.8539 35.3449 65.5297 35.7033 65.4785C34.6793 65.3079 33.2457 64.2672 33.8942 63.1924H33.9113C34.5086 62.0493 36.13 62.7147 36.7956 63.5166C36.642 63.1754 36.403 62.0323 37.2052 61.6399C38.8436 61.7081 39.5433 63.1583 40.0041 64.5231C40.0041 63.5507 40.4308 63.1583 40.738 63.1242C43.3662 63.8919 43.2809 67.6282 43.2809 67.6282L43.2638 68.413V68.4642L43.1785 68.4983Z" fill="url(#paint56_linear)"/>
<path d="M42.8885 68.3275L42.3594 68.6517C42.3594 68.6517 39.5434 70.2553 37.8367 68.7199C37.7343 68.4811 38.2122 67.7304 38.8949 67.3209C37.7343 67.5598 35.5669 67.6963 34.7818 66.5703C34.6965 65.8367 35.7375 65.4443 36.0447 65.4102C35.1743 65.2737 33.6554 64.2159 34.2015 63.3288C34.2015 63.3288 34.2015 63.3288 34.2186 63.3288C34.7135 62.3734 36.3861 63.1411 36.9493 63.8235C36.8298 63.5335 36.6591 62.3904 37.3418 62.0663C38.7242 62.1175 39.6629 64.1306 40.0383 65.2737C40.0383 64.4548 40.4821 63.6188 40.7381 63.5676C42.9397 64.2159 42.9738 67.5768 42.9738 67.5768L42.9567 68.2251V68.2593L42.8885 68.3275Z" fill="url(#paint57_linear)"/>
<path d="M42.5301 68.5323C42.5301 68.5323 36.1813 64.8472 36.3691 64.5401C36.6421 64.233 42.9739 67.7816 42.9739 67.7816L42.9568 68.2764L42.5301 68.5323Z" fill="url(#paint58_linear)"/>
<path d="M58.7262 29.6171L58.6067 28.8835C58.6067 28.8835 58.0606 25.3349 55.2275 24.9595C54.9203 25.0448 54.5448 25.4372 54.7155 26.3756C54.0158 25.1301 53.043 23.8677 51.3534 24.0383C50.5854 24.516 51.0462 25.5567 51.251 25.8637C50.4318 25.1813 48.6227 24.7719 48.2131 25.949H48.2302C47.7182 27.1433 49.3395 27.9451 50.4318 27.9451C50.0563 28.0475 48.9811 28.6105 49.203 29.4806C50.3635 30.6919 51.9848 30.2995 53.3843 29.7536C52.5992 30.3848 52.5822 30.9649 52.7528 31.2208C55.1422 32.7392 58.0606 30.2654 58.0606 30.2654L58.675 29.7536L58.7091 29.7194L58.7262 29.6171Z" fill="url(#paint59_linear)"/>
<path d="M58.385 29.4977L58.2826 28.8665C58.2826 28.8665 57.6682 25.6761 55.296 25.3691C55.04 25.4373 54.7669 26.2903 54.9035 27.0922C54.3061 26.0515 52.9579 24.2942 51.5243 24.4307C50.8928 24.8402 51.2683 25.8809 51.4389 26.1538C50.7392 25.5908 48.8619 25.0961 48.5205 26.0856H48.5376C48.1109 27.0922 49.8517 27.8599 50.7733 27.8428C50.4661 27.9281 49.4421 28.5423 49.6299 29.2759C50.6027 30.2996 52.8384 29.7195 54.016 29.2759C53.3675 29.8048 52.992 30.692 53.1285 30.9137C55.1424 32.1933 57.8389 30.0266 57.8389 30.0266L58.3509 29.6001L58.385 29.566V29.4977Z" fill="url(#paint60_linear)"/>
<path d="M58.3167 29.088C58.3167 29.088 51.0804 26.5971 50.9609 26.9384C50.8927 27.3478 58.0095 29.9069 58.0095 29.9069L58.402 29.5657L58.3167 29.088Z" fill="url(#paint61_linear)"/>
<path d="M65.8773 37.1066L66.1504 36.4071C66.1504 36.4071 67.4986 33.0462 65.2117 31.4084C64.9045 31.3401 64.3754 31.5107 64.0341 32.3979C64.0512 30.9818 63.8634 29.4293 62.2933 28.781C61.3887 28.8493 61.2522 29.9582 61.2693 30.3335C60.8938 29.3611 59.5285 28.1498 58.5727 29.0028C58.5727 29.0028 58.5727 29.0028 58.5898 29.0199C57.5317 29.8217 58.5386 31.2889 59.4943 31.7837C59.1189 31.6984 57.8901 31.6813 57.6511 32.5514C58.0437 34.1381 59.665 34.5646 61.1669 34.7522C60.1599 34.9399 59.8527 35.4347 59.8698 35.7418C61.1839 38.1814 65.0069 37.3796 65.0069 37.3796L65.809 37.209L65.8602 37.1919L65.8773 37.1066Z" fill="url(#paint62_linear)"/>
<path d="M65.6382 36.8507L65.8772 36.2536C65.8772 36.2536 66.9695 33.1827 65.058 31.8008C64.802 31.7496 64.1193 32.3638 63.8292 33.1145C63.8462 31.9373 63.5561 29.7706 62.242 29.2246C61.474 29.2758 61.2692 30.3848 61.2862 30.6748C60.979 29.8559 59.5796 28.5422 58.7774 29.2588C58.7774 29.2588 58.7774 29.2588 58.7945 29.2758C57.907 29.9582 59.0334 31.4425 59.8356 31.852C59.5113 31.7837 58.3166 31.8349 58.1118 32.5685C58.4361 33.9163 60.6889 34.4622 61.9348 34.6158C61.0814 34.7693 60.3134 35.3665 60.3305 35.6224C61.4398 37.6696 64.9044 37.0555 64.9044 37.0555L65.57 36.919H65.6041L65.6382 36.8507Z" fill="url(#paint63_linear)"/>
<path d="M65.7919 36.4583C65.7919 36.4583 60.7572 30.9135 60.4841 31.1524C60.211 31.4936 65.1263 37.0383 65.1263 37.0383L65.6383 36.9189L65.7919 36.4583Z" fill="url(#paint64_linear)"/>
<path d="M69.427 46.217L69.9561 45.654C69.9561 45.654 72.499 43.0096 71.0142 40.6723C70.7582 40.5017 70.195 40.4676 69.5294 41.1841C70.0926 39.8875 70.5022 38.3691 69.3075 37.209C68.4371 36.9531 67.8739 37.9426 67.7715 38.2838C67.8057 37.2431 67.0035 35.6394 65.7747 36.083V36.1001C64.4777 36.4754 64.8531 38.1815 65.5529 38.9833C65.2286 38.7786 64.1022 38.3179 63.539 39.0515C63.283 40.6723 64.6483 41.6277 65.9625 42.3272C64.9555 42.1566 64.4777 42.4978 64.3753 42.7878C64.6654 45.5005 68.5225 46.1146 68.5054 46.1146L69.3075 46.2511H69.3587L69.427 46.217Z" fill="url(#paint65_linear)"/>
<path d="M69.2907 45.9099L69.7344 45.4493C69.7344 45.4493 71.936 42.9755 70.6901 41.0136C70.4683 40.86 69.5979 41.2012 69.0517 41.7983C69.5296 40.7065 70.0928 38.591 69.0688 37.6185C68.3349 37.3967 67.7205 38.3521 67.6181 38.6421C67.6352 37.772 66.8501 36.066 65.8261 36.4413C65.8261 36.4413 65.8261 36.4413 65.8261 36.4584C64.7339 36.7825 65.2288 38.5568 65.8091 39.2222C65.536 39.0516 64.3925 38.6763 63.9317 39.2904C63.7269 40.6553 65.6043 41.9519 66.7136 42.5319C65.8603 42.3784 64.9216 42.6684 64.8363 42.9073C65.0752 45.1934 68.5397 45.8417 68.5397 45.8417L69.2224 45.9441H69.2565L69.2907 45.9099Z" fill="url(#paint66_linear)"/>
<path d="M69.5807 45.5858C69.5807 45.5858 67.0207 38.6592 66.6794 38.7957C66.3039 39.0175 68.7274 45.8929 68.7274 45.8929L69.2394 45.9612L69.5807 45.5858Z" fill="url(#paint67_linear)"/>
<path d="M68.4885 56.1975L69.1882 55.8563C69.1882 55.8563 72.5503 54.2526 72.0384 51.557C71.8506 51.3011 71.3386 51.0793 70.4682 51.5229C71.4751 50.4992 72.4479 49.2197 71.7482 47.7354C71.0314 47.1895 70.144 47.9401 69.905 48.2131C70.3146 47.2577 70.1781 45.4834 68.864 45.4834V45.5005C67.5157 45.4152 67.2256 47.1383 67.584 48.1278C67.3621 47.8207 66.4746 47.0189 65.6896 47.4965C64.8533 48.9296 65.7578 50.2774 66.7136 51.3864C65.8432 50.8746 65.2629 51.0452 65.0581 51.2669C64.3072 53.9113 67.6693 55.788 67.6693 55.788L68.369 56.1804L68.4032 56.1975H68.4885Z" fill="url(#paint68_linear)"/>
<path d="M68.4886 55.873L69.0859 55.5829C69.0859 55.5829 72.0726 54.0304 71.6288 51.7784C71.4752 51.5737 70.5366 51.5737 69.8027 51.949C70.656 51.096 71.9702 49.3046 71.3899 48.0592C70.7926 47.5986 69.8539 48.281 69.6662 48.5198C70.0246 47.718 69.9222 45.8584 68.8128 45.8584V45.8755C67.6864 45.7902 67.4646 47.6156 67.7547 48.4516C67.567 48.1957 66.6454 47.4621 65.9798 47.8715C65.263 49.0658 66.543 50.9254 67.3451 51.8467C66.6112 51.4201 65.6214 51.3519 65.4507 51.5566C64.8192 53.7745 67.8059 55.5659 67.8059 55.5659L68.4032 55.89L68.4374 55.9071L68.4886 55.873Z" fill="url(#paint69_linear)"/>
<path d="M68.8808 55.6686C68.8808 55.6686 69.0856 48.3325 68.7101 48.3325C68.2835 48.4008 67.9592 55.6515 67.9592 55.6515L68.42 55.8904L68.8808 55.6686Z" fill="url(#paint70_linear)"/>
<path d="M61.8666 64.0453L62.6517 64.1476C62.6517 64.1476 66.3722 64.6424 67.5498 62.1516C67.5498 61.8445 67.2597 61.3838 66.2698 61.2815C67.7034 60.9914 69.2565 60.4455 69.5637 58.8589C69.2906 58.0229 68.113 58.1594 67.7546 58.2617C68.6591 57.6987 69.5978 56.1633 68.5055 55.4467C68.5055 55.4467 68.5055 55.4638 68.4884 55.4638C67.4303 54.6619 66.1674 55.9244 65.8773 56.931C65.8773 56.5557 65.6213 55.4126 64.6826 55.3785C63.1466 56.095 63.0954 57.7158 63.2319 59.1318C62.8053 58.2447 62.2421 58.057 61.9349 58.1423C59.7503 59.9166 61.4229 63.2946 61.4229 63.2946L61.7642 63.9941L61.7813 64.0282L61.8666 64.0453Z" fill="url(#paint71_linear)"/>
<path d="M62.0543 63.7723L62.7028 63.8576C62.7028 63.8576 66.082 64.1817 67.0548 62.1004C67.0548 61.8444 66.2697 61.3497 65.4335 61.2473C66.6452 60.9914 68.7785 60.2407 69.0516 58.893C68.8297 58.1935 67.6521 58.2447 67.3449 58.33C68.1129 57.8523 69.1369 56.2656 68.2153 55.6685C68.2153 55.6685 68.2153 55.6685 68.1983 55.6856C67.3108 55.0031 66.0479 56.4021 65.8089 57.2381C65.8089 56.931 65.4676 55.8221 64.6825 55.7879C63.3855 56.4021 63.3343 58.6029 63.4537 59.8142C63.0953 59.0636 62.3273 58.4835 62.0543 58.5518C60.2111 60.036 61.6276 63.124 61.6276 63.124L61.9177 63.7211L61.9348 63.7552L62.0543 63.7723Z" fill="url(#paint72_linear)"/>
<path d="M62.4983 63.8066C62.4983 63.8066 67.0209 57.8695 66.7137 57.6648C66.3211 57.4942 61.7644 63.3119 61.7644 63.3119L61.9863 63.7555L62.4983 63.8066Z" fill="url(#paint73_linear)"/>
<path d="M52.4286 68.5493L53.0942 68.9417C53.0942 68.9417 56.2857 70.8354 58.419 69.0099C58.5556 68.737 58.4702 68.191 57.6169 67.7133C59.0676 68.0034 60.706 68.1057 61.6617 66.775C61.7641 65.9049 60.6377 65.5808 60.2622 65.5296C61.3374 65.359 62.8393 64.3183 62.1566 63.2434H62.1396C61.5081 62.1004 59.8185 62.7657 59.1188 63.5676C59.2724 63.2264 59.5284 62.0833 58.675 61.6909C56.9684 61.7592 56.2345 63.2093 55.7566 64.5742C55.7566 63.6017 55.3129 63.2093 54.9886 63.1752C52.2409 63.9429 52.3262 67.6792 52.3262 67.6792L52.3433 68.464V68.5152L52.4286 68.5493Z" fill="url(#paint74_linear)"/>
<path d="M52.7357 68.3788L53.2989 68.7029C53.2989 68.7029 56.2515 70.3066 58.0264 68.7712C58.1288 68.5323 57.6339 67.7817 56.9171 67.3722C58.1288 67.611 60.4157 67.7475 61.2179 66.6215C61.3032 65.8879 60.2109 65.4955 59.9037 65.4614C60.8083 65.3249 62.4125 64.2672 61.8323 63.38C61.8323 63.38 61.8323 63.38 61.8152 63.38C61.2861 62.4246 59.5453 63.1924 58.9651 63.8748C59.1016 63.5848 59.2552 62.4417 58.5555 62.1176C57.1219 62.1687 56.132 64.1819 55.7224 65.3249C55.7224 64.506 55.2616 63.6701 54.9885 63.6189C52.6845 64.2672 52.6504 67.6281 52.6504 67.6281L52.6675 68.2764V68.3105L52.7357 68.3788Z" fill="url(#paint75_linear)"/>
<path d="M53.1112 68.5835C53.1112 68.5835 59.7672 64.8984 59.5624 64.5914C59.2723 64.2843 52.6504 67.8328 52.6504 67.8328L52.6675 68.3276L53.1112 68.5835Z" fill="url(#paint76_linear)"/>
<path d="M47.9573 64.5913C47.9573 64.5913 42.2058 64.0624 41.4719 70.5967C45.0047 71.2791 45.6191 71.2279 45.6191 71.2279C45.6191 71.2279 45.7898 66.0415 47.9573 64.5913Z" fill="url(#paint77_linear)"/>
<path d="M47.9915 64.5913C47.9915 64.5913 53.504 64.0624 54.2208 70.5967C50.8416 71.2791 50.2442 71.2279 50.2442 71.2279C50.2442 71.2279 50.0565 66.0415 47.9915 64.5913Z" fill="url(#paint78_linear)"/>
<path d="M130.08 57.24C128.384 57.24 126.848 56.872 125.472 56.136C124.112 55.384 123.04 54.352 122.256 53.04C121.488 51.728 121.104 50.248 121.104 48.6C121.104 46.952 121.496 45.472 122.28 44.16C123.064 42.848 124.136 41.824 125.496 41.088C126.872 40.336 128.408 39.96 130.104 39.96C131.48 39.96 132.736 40.2 133.872 40.68C135.008 41.16 135.968 41.856 136.752 42.768L134.736 44.664C133.52 43.352 132.024 42.696 130.248 42.696C129.096 42.696 128.064 42.952 127.152 43.464C126.24 43.96 125.528 44.656 125.016 45.552C124.504 46.448 124.248 47.464 124.248 48.6C124.248 49.736 124.504 50.752 125.016 51.648C125.528 52.544 126.24 53.248 127.152 53.76C128.064 54.256 129.096 54.504 130.248 54.504C132.024 54.504 133.52 53.84 134.736 52.512L136.752 54.432C135.968 55.344 135 56.04 133.848 56.52C132.712 57 131.456 57.24 130.08 57.24ZM155.079 40.2V57H152.007V42.84H145.383L145.239 47.04C145.159 49.392 144.967 51.304 144.663 52.776C144.359 54.232 143.871 55.344 143.199 56.112C142.527 56.864 141.599 57.24 140.415 57.24C139.999 57.24 139.431 57.16 138.711 57L138.927 54.288C139.135 54.352 139.375 54.384 139.647 54.384C140.623 54.384 141.311 53.808 141.711 52.656C142.127 51.488 142.383 49.656 142.479 47.16L142.719 40.2H155.079ZM175.729 40.2L168.433 53.76C167.793 54.96 167.025 55.864 166.129 56.472C165.249 57.064 164.289 57.36 163.249 57.36C162.417 57.36 161.593 57.184 160.777 56.832L161.545 54.384C162.201 54.592 162.745 54.696 163.177 54.696C164.185 54.696 165.017 54.176 165.673 53.136L165.937 52.728L159.241 40.2H162.577L167.545 50.064L172.657 40.2H175.729ZM193.829 49.92H190.949V57H187.901V49.92H185.021L180.773 57H177.173L182.453 48.24L177.533 40.2H180.845L184.949 47.232H187.901V40.2H190.949V47.232H193.853L197.981 40.2H201.293L196.397 48.264L201.653 57H198.053L193.829 49.92ZM205.345 40.2H218.425V42.768H208.417V46.896H213.385C215.401 46.896 216.929 47.32 217.969 48.168C219.025 49 219.553 50.208 219.553 51.792C219.553 53.456 218.977 54.744 217.825 55.656C216.673 56.552 215.033 57 212.905 57H205.345V40.2ZM212.737 54.6C213.937 54.6 214.849 54.368 215.473 53.904C216.097 53.44 216.409 52.768 216.409 51.888C216.409 50.16 215.185 49.296 212.737 49.296H208.417V54.6H212.737ZM235.488 53.112H227.088L225.432 57H222.216L229.776 40.2H232.848L240.432 57H237.168L235.488 53.112ZM234.456 50.664L231.288 43.32L228.144 50.664H234.456ZM252.665 40.2H265.745V42.768H255.737V46.896H260.705C262.721 46.896 264.249 47.32 265.289 48.168C266.345 49 266.873 50.208 266.873 51.792C266.873 53.456 266.297 54.744 265.145 55.656C263.993 56.552 262.353 57 260.225 57H252.665V40.2ZM260.057 54.6C261.257 54.6 262.169 54.368 262.793 53.904C263.417 53.44 263.729 52.768 263.729 51.888C263.729 50.16 262.505 49.296 260.057 49.296H255.737V54.6H260.057ZM284.39 54.384V57H271.79V40.2H284.054V42.816H274.91V47.184H283.022V49.752H274.91V54.384H284.39ZM298.2 48.24C299.208 48.56 299.992 49.08 300.552 49.8C301.128 50.504 301.416 51.336 301.416 52.296C301.416 53.304 301.088 54.184 300.432 54.936C299.776 55.672 298.896 56.24 297.792 56.64C296.704 57.04 295.512 57.24 294.216 57.24C293.096 57.24 291.968 57.088 290.832 56.784C289.712 56.464 288.672 55.992 287.712 55.368L288.72 53.088C289.456 53.584 290.272 53.968 291.168 54.24C292.064 54.496 292.952 54.624 293.832 54.624C295.096 54.624 296.144 54.376 296.976 53.88C297.824 53.384 298.248 52.704 298.248 51.84C298.248 51.104 297.944 50.544 297.336 50.16C296.728 49.776 295.888 49.584 294.816 49.584H290.904V47.136H294.576C295.504 47.136 296.232 46.944 296.76 46.56C297.288 46.176 297.552 45.656 297.552 45C297.552 44.216 297.192 43.608 296.472 43.176C295.768 42.744 294.864 42.528 293.76 42.528C293.008 42.528 292.232 42.64 291.432 42.864C290.632 43.072 289.88 43.384 289.176 43.8L288.192 41.28C289.056 40.816 289.968 40.472 290.928 40.248C291.904 40.008 292.872 39.888 293.832 39.888C295.08 39.888 296.224 40.08 297.264 40.464C298.32 40.848 299.16 41.4 299.784 42.12C300.408 42.824 300.72 43.656 300.72 44.616C300.72 45.448 300.496 46.176 300.048 46.8C299.6 47.424 298.984 47.904 298.2 48.24ZM321.334 40.2V57H318.262V42.84H309.55V57H306.478V40.2H321.334ZM340.171 54.384V57H327.571V40.2H339.835V42.816H330.691V47.184H338.803V49.752H330.691V54.384H340.171ZM351.341 49.92H348.221V57H345.149V40.2H348.221V47.232H351.437L356.261 40.2H359.573L353.837 48.336L359.789 57H356.261L351.341 49.92ZM363.431 40.2H366.503V52.128L375.527 40.2H378.431V57H375.359V45.096L366.335 57H363.431V40.2ZM407.198 40.2L399.902 53.76C399.262 54.96 398.494 55.864 397.598 56.472C396.718 57.064 395.758 57.36 394.718 57.36C393.886 57.36 393.062 57.184 392.246 56.832L393.014 54.384C393.67 54.592 394.214 54.696 394.646 54.696C395.654 54.696 396.486 54.176 397.142 53.136L397.406 52.728L390.71 40.2H394.046L399.014 50.064L404.126 40.2H407.198ZM417.06 49.92H413.94V57H410.868V40.2H413.94V47.232H417.156L421.98 40.2H425.292L419.556 48.336L425.508 57H421.98L417.06 49.92ZM436.037 40.2C437.493 40.2 438.757 40.44 439.829 40.92C440.917 41.4 441.749 42.088 442.325 42.984C442.901 43.88 443.189 44.944 443.189 46.176C443.189 47.392 442.901 48.456 442.325 49.368C441.749 50.264 440.917 50.952 439.829 51.432C438.757 51.912 437.493 52.152 436.037 52.152H432.245V57H429.125V40.2H436.037ZM435.893 49.512C437.253 49.512 438.285 49.224 438.989 48.648C439.693 48.072 440.045 47.248 440.045 46.176C440.045 45.104 439.693 44.28 438.989 43.704C438.285 43.128 437.253 42.84 435.893 42.84H432.245V49.512H435.893ZM457.933 53.112H449.533L447.877 57H444.661L452.221 40.2H455.293L462.877 57H459.613L457.933 53.112ZM456.901 50.664L453.733 43.32L450.589 50.664H456.901ZM466.858 40.2H469.978V57H466.858V40.2ZM466.09 38.568C465.674 38.568 465.33 38.432 465.058 38.16C464.786 37.888 464.65 37.544 464.65 37.128C464.65 36.696 464.786 36.344 465.058 36.072C465.33 35.8 465.674 35.664 466.09 35.664C466.506 35.664 466.85 35.8 467.122 36.072C467.394 36.344 467.53 36.696 467.53 37.128C467.53 37.544 467.394 37.888 467.122 38.16C466.85 38.432 466.506 38.568 466.09 38.568ZM470.746 38.568C470.33 38.568 469.986 38.432 469.714 38.16C469.442 37.888 469.306 37.544 469.306 37.128C469.306 36.696 469.442 36.344 469.714 36.072C469.986 35.8 470.33 35.664 470.746 35.664C471.162 35.664 471.506 35.8 471.778 36.072C472.05 36.344 472.186 36.696 472.186 37.128C472.186 37.544 472.05 37.888 471.778 38.16C471.506 38.432 471.162 38.568 470.746 38.568ZM491.046 40.2V57H487.926V49.8H479.238V57H476.118V40.2H479.238V47.136H487.926V40.2H491.046ZM497.282 40.2H500.354V52.128L509.378 40.2H512.282V57H509.21V45.096L500.186 57H497.282V40.2Z" fill="white"/>
<defs>
<linearGradient id="paint0_linear" x1="0.170654" y1="47.696" x2="32.0545" y2="47.696" gradientUnits="userSpaceOnUse">
<stop stop-color="#FFE06E"/>
<stop offset="0.9325" stop-color="#E1BA00"/>
<stop offset="1" stop-color="#967002"/>
</linearGradient>
<linearGradient id="paint1_linear" x1="47.7954" y1="0.188507" x2="47.7954" y2="32.0609" gradientUnits="userSpaceOnUse">
<stop stop-color="#FFE06E"/>
<stop offset="0.9325" stop-color="#E1BA00"/>
<stop offset="1" stop-color="#967002"/>
</linearGradient>
<linearGradient id="paint2_linear" x1="47.9895" y1="95.7277" x2="47.9895" y2="63.6337" gradientUnits="userSpaceOnUse">
<stop stop-color="#FFE06E"/>
<stop offset="0.9325" stop-color="#E1BA00"/>
<stop offset="1" stop-color="#967002"/>
</linearGradient>
<linearGradient id="paint3_linear" x1="95.7443" y1="47.6961" x2="63.8606" y2="47.6961" gradientUnits="userSpaceOnUse">
<stop stop-color="#FFE06E"/>
<stop offset="0.9325" stop-color="#E1BA00"/>
<stop offset="1" stop-color="#967002"/>
</linearGradient>
<radialGradient id="paint4_radial" cx="0" cy="0" r="1" gradientUnits="userSpaceOnUse" gradientTransform="translate(47.8619 67.6658) scale(6.26811 6.26589)">
<stop stop-color="#FFF28A"/>
<stop offset="0.3742" stop-color="#E8D100"/>
<stop offset="0.5153" stop-color="#BA9C16"/>
<stop offset="1" stop-color="#A3931E"/>
</radialGradient>
<linearGradient id="paint5_linear" x1="38.1465" y1="28.3572" x2="41.2786" y2="32.3676" gradientUnits="userSpaceOnUse">
<stop stop-color="#A3931E"/>
<stop offset="0.2086" stop-color="#BA9C16"/>
<stop offset="0.9755" stop-color="#F6E77B"/>
</linearGradient>
<linearGradient id="paint6_linear" x1="30.765" y1="35.1316" x2="35.3699" y2="37.2992" gradientUnits="userSpaceOnUse">
<stop stop-color="#A3931E"/>
<stop offset="0.2086" stop-color="#BA9C16"/>
<stop offset="0.9755" stop-color="#F6E77B"/>
</linearGradient>
<linearGradient id="paint7_linear" x1="27.2457" y1="44.5275" x2="32.3332" y2="44.3878" gradientUnits="userSpaceOnUse">
<stop stop-color="#A3931E"/>
<stop offset="0.2086" stop-color="#BA9C16"/>
<stop offset="0.9755" stop-color="#F6E77B"/>
</linearGradient>
<linearGradient id="paint8_linear" x1="27.5652" y1="54.7987" x2="31.6724" y2="51.7941" gradientUnits="userSpaceOnUse">
<stop stop-color="#A3931E"/>
<stop offset="0.2086" stop-color="#BA9C16"/>
<stop offset="0.9755" stop-color="#F6E77B"/>
</linearGradient>
<linearGradient id="paint9_linear" x1="33.5052" y1="63.9152" x2="34.4953" y2="58.9246" gradientUnits="userSpaceOnUse">
<stop stop-color="#A3931E"/>
<stop offset="0.2086" stop-color="#BA9C16"/>
<stop offset="0.9755" stop-color="#F6E77B"/>
</linearGradient>
<linearGradient id="paint10_linear" x1="41.0969" y1="67.2326" x2="40.9591" y2="62.7933" gradientUnits="userSpaceOnUse">
<stop stop-color="#A3931E"/>
<stop offset="0.2086" stop-color="#BA9C16"/>
<stop offset="0.9755" stop-color="#F6E77B"/>
</linearGradient>
<linearGradient id="paint11_linear" x1="57.9021" y1="28.0441" x2="54.1096" y2="32.1624" gradientUnits="userSpaceOnUse">
<stop stop-color="#A3931E"/>
<stop offset="0.2086" stop-color="#BA9C16"/>
<stop offset="0.9755" stop-color="#F6E77B"/>
</linearGradient>
<linearGradient id="paint12_linear" x1="65.2559" y1="34.9422" x2="60.2002" y2="36.9605" gradientUnits="userSpaceOnUse">
<stop stop-color="#A3931E"/>
<stop offset="0.2086" stop-color="#BA9C16"/>
<stop offset="0.9755" stop-color="#F6E77B"/>
</linearGradient>
<linearGradient id="paint13_linear" x1="68.567" y1="44.4681" x2="63.5549" y2="44.3513" gradientUnits="userSpaceOnUse">
<stop stop-color="#A3931E"/>
<stop offset="0.2086" stop-color="#BA9C16"/>
<stop offset="0.9755" stop-color="#F6E77B"/>
</linearGradient>
<linearGradient id="paint14_linear" x1="68.0488" y1="54.6063" x2="64.1907" y2="52.2123" gradientUnits="userSpaceOnUse">
<stop stop-color="#A3931E"/>
<stop offset="0.2086" stop-color="#BA9C16"/>
<stop offset="0.9755" stop-color="#F6E77B"/>
</linearGradient>
<linearGradient id="paint15_linear" x1="62.3471" y1="63.7469" x2="61.2405" y2="59.0165" gradientUnits="userSpaceOnUse">
<stop stop-color="#A3931E"/>
<stop offset="0.2086" stop-color="#BA9C16"/>
<stop offset="0.9755" stop-color="#F6E77B"/>
</linearGradient>
<linearGradient id="paint16_linear" x1="54.862" y1="67.1876" x2="55.0257" y2="62.7168" gradientUnits="userSpaceOnUse">
<stop stop-color="#A3931E"/>
<stop offset="0.2086" stop-color="#BA9C16"/>
<stop offset="0.9755" stop-color="#F6E77B"/>
</linearGradient>
<linearGradient id="paint17_linear" x1="25.6955" y1="55.5822" x2="27.7722" y2="58.0976" gradientUnits="userSpaceOnUse">
<stop stop-color="#FCF3A2"/>
<stop offset="0.4356" stop-color="#E8D100"/>
<stop offset="0.7362" stop-color="#BFAE10"/>
<stop offset="1" stop-color="#967002"/>
</linearGradient>
<radialGradient id="paint18_radial" cx="0" cy="0" r="1" gradientUnits="userSpaceOnUse" gradientTransform="translate(26.9395 57.1293) rotate(-35.9505) scale(2.43734 2.91931)">
<stop stop-color="#FFF28A"/>
<stop offset="0.3742" stop-color="#F6E77B"/>
<stop offset="0.5153" stop-color="#BA9C16"/>
<stop offset="1" stop-color="#A3931E"/>
</radialGradient>
<linearGradient id="paint19_linear" x1="32.2095" y1="64.6317" x2="35.0549" y2="66.2273" gradientUnits="userSpaceOnUse">
<stop stop-color="#FCF3A2"/>
<stop offset="0.4356" stop-color="#E8D100"/>
<stop offset="0.7362" stop-color="#BFAE10"/>
<stop offset="1" stop-color="#967002"/>
</linearGradient>
<radialGradient id="paint20_radial" cx="0" cy="0" r="1" gradientUnits="userSpaceOnUse" gradientTransform="translate(33.9281 65.6253) rotate(-57.1234) scale(2.43704 2.91995)">
<stop stop-color="#FFF28A"/>
<stop offset="0.3742" stop-color="#F6E77B"/>
<stop offset="0.5153" stop-color="#BA9C16"/>
<stop offset="1" stop-color="#A3931E"/>
</radialGradient>
<linearGradient id="paint21_linear" x1="47.1156" y1="70.8185" x2="45.8115" y2="68.3269" gradientUnits="userSpaceOnUse">
<stop stop-color="#FCF3A2"/>
<stop offset="0.4356" stop-color="#E8D100"/>
<stop offset="0.7362" stop-color="#BFAE10"/>
<stop offset="1" stop-color="#967002"/>
</linearGradient>
<radialGradient id="paint22_radial" cx="0" cy="0" r="1" gradientUnits="userSpaceOnUse" gradientTransform="translate(46.3415 69.2919) rotate(155.964) scale(2.10146 2.51692)">
<stop stop-color="#FFF28A"/>
<stop offset="0.3742" stop-color="#F6E77B"/>
<stop offset="0.5153" stop-color="#BA9C16"/>
<stop offset="1" stop-color="#A3931E"/>
</radialGradient>
<linearGradient id="paint23_linear" x1="48.941" y1="70.9306" x2="50.1219" y2="68.3452" gradientUnits="userSpaceOnUse">
<stop stop-color="#FCF3A2"/>
<stop offset="0.4356" stop-color="#E8D100"/>
<stop offset="0.7362" stop-color="#BFAE10"/>
<stop offset="1" stop-color="#967002"/>
</linearGradient>
<radialGradient id="paint24_radial" cx="0" cy="0" r="1" gradientUnits="userSpaceOnUse" gradientTransform="translate(49.6808 69.3668) rotate(-151.859) scale(2.1238 2.54391)">
<stop stop-color="#FFF28A"/>
<stop offset="0.3742" stop-color="#F6E77B"/>
<stop offset="0.5153" stop-color="#BA9C16"/>
<stop offset="1" stop-color="#A3931E"/>
</radialGradient>
<linearGradient id="paint25_linear" x1="29.0752" y1="34.2855" x2="28.6196" y2="37.5151" gradientUnits="userSpaceOnUse">
<stop stop-color="#FCF3A2"/>
<stop offset="0.4356" stop-color="#E8D100"/>
<stop offset="0.7362" stop-color="#BFAE10"/>
<stop offset="1" stop-color="#967002"/>
</linearGradient>
<radialGradient id="paint26_radial" cx="0" cy="0" r="1" gradientUnits="userSpaceOnUse" gradientTransform="translate(28.7718 36.247) rotate(11.6209) scale(2.43764 2.91939)">
<stop stop-color="#FFF28A"/>
<stop offset="0.3742" stop-color="#F6E77B"/>
<stop offset="0.5153" stop-color="#BA9C16"/>
<stop offset="1" stop-color="#A3931E"/>
</radialGradient>
<linearGradient id="paint27_linear" x1="36.7653" y1="26.7015" x2="34.9198" y2="29.3912" gradientUnits="userSpaceOnUse">
<stop stop-color="#FCF3A2"/>
<stop offset="0.4356" stop-color="#E8D100"/>
<stop offset="0.7362" stop-color="#BFAE10"/>
<stop offset="1" stop-color="#967002"/>
</linearGradient>
<radialGradient id="paint28_radial" cx="0" cy="0" r="1" gradientUnits="userSpaceOnUse" gradientTransform="translate(35.6202 28.323) rotate(38.0475) scale(2.43734 2.9196)">
<stop stop-color="#FFF28A"/>
<stop offset="0.3742" stop-color="#F6E77B"/>
<stop offset="0.5153" stop-color="#BA9C16"/>
<stop offset="1" stop-color="#A3931E"/>
</radialGradient>
<linearGradient id="paint29_linear" x1="25.1212" y1="44.5069" x2="25.9892" y2="47.6508" gradientUnits="userSpaceOnUse">
<stop stop-color="#FCF3A2"/>
<stop offset="0.4356" stop-color="#E8D100"/>
<stop offset="0.7362" stop-color="#BFAE10"/>
<stop offset="1" stop-color="#967002"/>
</linearGradient>
<radialGradient id="paint30_radial" cx="0" cy="0" r="1" gradientUnits="userSpaceOnUse" gradientTransform="translate(25.6245 46.4268) rotate(-11.8443) scale(2.43769 2.9192)">
<stop stop-color="#FFF28A"/>
<stop offset="0.3742" stop-color="#F6E77B"/>
<stop offset="0.5153" stop-color="#BA9C16"/>
<stop offset="1" stop-color="#A3931E"/>
</radialGradient>
<linearGradient id="paint31_linear" x1="70.7709" y1="55.7086" x2="68.7135" y2="58.3135" gradientUnits="userSpaceOnUse">
<stop stop-color="#FCF3A2"/>
<stop offset="0.4356" stop-color="#E8D100"/>
<stop offset="0.7362" stop-color="#BFAE10"/>
<stop offset="1" stop-color="#967002"/>
</linearGradient>
<radialGradient id="paint32_radial" cx="0" cy="0" r="1" gradientUnits="userSpaceOnUse" gradientTransform="translate(69.4706 57.2558) rotate(-145.248) scale(2.51011 2.96277)">
<stop stop-color="#FFF28A"/>
<stop offset="0.3742" stop-color="#F6E77B"/>
<stop offset="0.5153" stop-color="#BA9C16"/>
<stop offset="1" stop-color="#A3931E"/>
</radialGradient>
<linearGradient id="paint33_linear" x1="63.9412" y1="64.7222" x2="60.9048" y2="66.502" gradientUnits="userSpaceOnUse">
<stop stop-color="#FCF3A2"/>
<stop offset="0.4356" stop-color="#E8D100"/>
<stop offset="0.7362" stop-color="#BFAE10"/>
<stop offset="1" stop-color="#967002"/>
</linearGradient>
<radialGradient id="paint34_radial" cx="0" cy="0" r="1" gradientUnits="userSpaceOnUse" gradientTransform="translate(62.1361 65.7174) rotate(-124.043) scale(2.54596 3.10384)">
<stop stop-color="#FFF28A"/>
<stop offset="0.3742" stop-color="#F6E77B"/>
<stop offset="0.5153" stop-color="#BA9C16"/>
<stop offset="1" stop-color="#A3931E"/>
</radialGradient>
<linearGradient id="paint35_linear" x1="67.2386" y1="34.4119" x2="67.6752" y2="37.6468" gradientUnits="userSpaceOnUse">
<stop stop-color="#FCF3A2"/>
<stop offset="0.4356" stop-color="#E8D100"/>
<stop offset="0.7362" stop-color="#BFAE10"/>
<stop offset="1" stop-color="#967002"/>
</linearGradient>
<radialGradient id="paint36_radial" cx="0" cy="0" r="1" gradientUnits="userSpaceOnUse" gradientTransform="translate(67.5557 36.3732) rotate(168.869) scale(2.54356 2.9244)">
<stop stop-color="#FFF28A"/>
<stop offset="0.3742" stop-color="#F6E77B"/>
<stop offset="0.5153" stop-color="#BA9C16"/>
<stop offset="1" stop-color="#A3931E"/>
</radialGradient>
<linearGradient id="paint37_linear" x1="59.2002" y1="26.828" x2="61.0151" y2="29.5926" gradientUnits="userSpaceOnUse">
<stop stop-color="#FCF3A2"/>
<stop offset="0.4356" stop-color="#E8D100"/>
<stop offset="0.7362" stop-color="#BFAE10"/>
<stop offset="1" stop-color="#967002"/>
</linearGradient>
<radialGradient id="paint38_radial" cx="0" cy="0" r="1" gradientUnits="userSpaceOnUse" gradientTransform="translate(60.3974 28.4491) rotate(143.175) scale(2.50614 2.96766)">
<stop stop-color="#FFF28A"/>
<stop offset="0.3742" stop-color="#F6E77B"/>
<stop offset="0.5153" stop-color="#BA9C16"/>
<stop offset="1" stop-color="#A3931E"/>
</radialGradient>
<linearGradient id="paint39_linear" x1="71.3713" y1="44.6331" x2="70.5358" y2="47.796" gradientUnits="userSpaceOnUse">
<stop stop-color="#FCF3A2"/>
<stop offset="0.4356" stop-color="#E8D100"/>
<stop offset="0.7362" stop-color="#BFAE10"/>
<stop offset="1" stop-color="#967002"/>
</linearGradient>
<radialGradient id="paint40_radial" cx="0" cy="0" r="1" gradientUnits="userSpaceOnUse" gradientTransform="translate(70.8456 46.5531) rotate(-168.654) scale(2.54337 2.9246)">
<stop stop-color="#FFF28A"/>
<stop offset="0.3742" stop-color="#F6E77B"/>
<stop offset="0.5153" stop-color="#BA9C16"/>
<stop offset="1" stop-color="#A3931E"/>
</radialGradient>
<linearGradient id="paint41_linear" x1="41.1443" y1="24.6168" x2="43.2813" y2="31.1128" gradientUnits="userSpaceOnUse">
<stop stop-color="#967002"/>
<stop offset="0.2638" stop-color="#BFAE10"/>
<stop offset="0.5644" stop-color="#E8D100"/>
<stop offset="1" stop-color="#FCF3A2"/>
</linearGradient>
<linearGradient id="paint42_linear" x1="41.2695" y1="24.9975" x2="43.1556" y2="30.7306" gradientUnits="userSpaceOnUse">
<stop stop-color="#FCF3A2"/>
<stop offset="0.4356" stop-color="#E8D100"/>
<stop offset="0.7362" stop-color="#BFAE10"/>
<stop offset="1" stop-color="#967002"/>
</linearGradient>
<linearGradient id="paint43_linear" x1="40.9011" y1="27.8594" x2="41.1878" y2="28.6823" gradientUnits="userSpaceOnUse">
<stop stop-color="#BA9C16"/>
<stop offset="0.1656" stop-color="#C3A624"/>
<stop offset="0.1848" stop-color="#C9AE2E"/>
<stop offset="0.2433" stop-color="#DAC248"/>
<stop offset="0.3104" stop-color="#E7D360"/>
<stop offset="0.3889" stop-color="#F2E173"/>
<stop offset="0.4859" stop-color="#F9EB80"/>
<stop offset="0.6221" stop-color="#FEF088"/>
<stop offset="1" stop-color="#FFF28A"/>
</linearGradient>
<linearGradient id="paint44_linear" x1="31.3819" y1="30.7886" x2="36.4217" y2="35.4123" gradientUnits="userSpaceOnUse">
<stop stop-color="#967002"/>
<stop offset="0.2638" stop-color="#BFAE10"/>
<stop offset="0.5644" stop-color="#E8D100"/>
<stop offset="1" stop-color="#FCF3A2"/>
</linearGradient>
<linearGradient id="paint45_linear" x1="31.6772" y1="31.059" x2="36.1252" y2="35.1396" gradientUnits="userSpaceOnUse">
<stop stop-color="#FCF3A2"/>
<stop offset="0.4356" stop-color="#E8D100"/>
<stop offset="0.7362" stop-color="#BFAE10"/>
<stop offset="1" stop-color="#967002"/>
</linearGradient>
<linearGradient id="paint46_linear" x1="32.7552" y1="33.7361" x2="33.4076" y2="34.314" gradientUnits="userSpaceOnUse">
<stop stop-color="#BA9C16"/>
<stop offset="0.1656" stop-color="#C3A624"/>
<stop offset="0.1848" stop-color="#C9AE2E"/>
<stop offset="0.2433" stop-color="#DAC248"/>
<stop offset="0.3104" stop-color="#E7D360"/>
<stop offset="0.3889" stop-color="#F2E173"/>
<stop offset="0.4859" stop-color="#F9EB80"/>
<stop offset="0.6221" stop-color="#FEF088"/>
<stop offset="1" stop-color="#FFF28A"/>
</linearGradient>
<linearGradient id="paint47_linear" x1="25.6268" y1="39.9523" x2="32.0133" y2="42.4025" gradientUnits="userSpaceOnUse">
<stop stop-color="#967002"/>
<stop offset="0.2638" stop-color="#BFAE10"/>
<stop offset="0.5644" stop-color="#E8D100"/>
<stop offset="1" stop-color="#FCF3A2"/>
</linearGradient>
<linearGradient id="paint48_linear" x1="26.0004" y1="40.0955" x2="31.6369" y2="42.258" gradientUnits="userSpaceOnUse">
<stop stop-color="#FCF3A2"/>
<stop offset="0.4356" stop-color="#E8D100"/>
<stop offset="0.7362" stop-color="#BFAE10"/>
<stop offset="1" stop-color="#967002"/>
</linearGradient>
<linearGradient id="paint49_linear" x1="27.9865" y1="42.1898" x2="28.8057" y2="42.4878" gradientUnits="userSpaceOnUse">
<stop stop-color="#BA9C16"/>
<stop offset="0.1656" stop-color="#C3A624"/>
<stop offset="0.1848" stop-color="#C9AE2E"/>
<stop offset="0.2433" stop-color="#DAC248"/>
<stop offset="0.3104" stop-color="#E7D360"/>
<stop offset="0.3889" stop-color="#F2E173"/>
<stop offset="0.4859" stop-color="#F9EB80"/>
<stop offset="0.6221" stop-color="#FEF088"/>
<stop offset="1" stop-color="#FFF28A"/>
</linearGradient>
<linearGradient id="paint50_linear" x1="24.377" y1="50.816" x2="31.2176" y2="50.816" gradientUnits="userSpaceOnUse">
<stop stop-color="#967002"/>
<stop offset="0.2638" stop-color="#BFAE10"/>
<stop offset="0.5644" stop-color="#E8D100"/>
<stop offset="1" stop-color="#FCF3A2"/>
</linearGradient>
<linearGradient id="paint51_linear" x1="24.7775" y1="50.816" x2="30.815" y2="50.816" gradientUnits="userSpaceOnUse">
<stop stop-color="#FCF3A2"/>
<stop offset="0.4356" stop-color="#E8D100"/>
<stop offset="0.7362" stop-color="#BFAE10"/>
<stop offset="1" stop-color="#967002"/>
</linearGradient>
<linearGradient id="paint52_linear" x1="27.3819" y1="52.0604" x2="28.2535" y2="52.0452" gradientUnits="userSpaceOnUse">
<stop stop-color="#BA9C16"/>
<stop offset="0.1656" stop-color="#C3A624"/>
<stop offset="0.1848" stop-color="#C9AE2E"/>
<stop offset="0.2433" stop-color="#DAC248"/>
<stop offset="0.3104" stop-color="#E7D360"/>
<stop offset="0.3889" stop-color="#F2E173"/>
<stop offset="0.4859" stop-color="#F9EB80"/>
<stop offset="0.6221" stop-color="#FEF088"/>
<stop offset="1" stop-color="#FFF28A"/>
</linearGradient>
<linearGradient id="paint53_linear" x1="28.3043" y1="61.5356" x2="33.9449" y2="57.6669" gradientUnits="userSpaceOnUse">
<stop stop-color="#967002"/>
<stop offset="0.2638" stop-color="#BFAE10"/>
<stop offset="0.5644" stop-color="#E8D100"/>
<stop offset="1" stop-color="#FCF3A2"/>
</linearGradient>
<linearGradient id="paint54_linear" x1="28.6348" y1="61.309" x2="33.6131" y2="57.8946" gradientUnits="userSpaceOnUse">
<stop stop-color="#FCF3A2"/>
<stop offset="0.4356" stop-color="#E8D100"/>
<stop offset="0.7362" stop-color="#BFAE10"/>
<stop offset="1" stop-color="#967002"/>
</linearGradient>
<linearGradient id="paint55_linear" x1="31.4869" y1="60.8634" x2="32.197" y2="60.3578" gradientUnits="userSpaceOnUse">
<stop stop-color="#BA9C16"/>
<stop offset="0.1656" stop-color="#C3A624"/>
<stop offset="0.1848" stop-color="#C9AE2E"/>
<stop offset="0.2433" stop-color="#DAC248"/>
<stop offset="0.3104" stop-color="#E7D360"/>
<stop offset="0.3889" stop-color="#F2E173"/>
<stop offset="0.4859" stop-color="#F9EB80"/>
<stop offset="0.6221" stop-color="#FEF088"/>
<stop offset="1" stop-color="#FFF28A"/>
</linearGradient>
<linearGradient id="paint56_linear" x1="36.8301" y1="68.631" x2="40.4176" y2="62.8085" gradientUnits="userSpaceOnUse">
<stop stop-color="#967002"/>
<stop offset="0.2638" stop-color="#BFAE10"/>
<stop offset="0.5644" stop-color="#E8D100"/>
<stop offset="1" stop-color="#FCF3A2"/>
</linearGradient>
<linearGradient id="paint57_linear" x1="37.0404" y1="68.29" x2="40.2065" y2="63.1513" gradientUnits="userSpaceOnUse">
<stop stop-color="#FCF3A2"/>
<stop offset="0.4356" stop-color="#E8D100"/>
<stop offset="0.7362" stop-color="#BFAE10"/>
<stop offset="1" stop-color="#967002"/>
</linearGradient>
<linearGradient id="paint58_linear" x1="39.4668" y1="66.7269" x2="39.911" y2="65.977" gradientUnits="userSpaceOnUse">
<stop stop-color="#BA9C16"/>
<stop offset="0.1656" stop-color="#C3A624"/>
<stop offset="0.1848" stop-color="#C9AE2E"/>
<stop offset="0.2433" stop-color="#DAC248"/>
<stop offset="0.3104" stop-color="#E7D360"/>
<stop offset="0.3889" stop-color="#F2E173"/>
<stop offset="0.4859" stop-color="#F9EB80"/>
<stop offset="0.6221" stop-color="#FEF088"/>
<stop offset="1" stop-color="#FFF28A"/>
</linearGradient>
<linearGradient id="paint59_linear" x1="54.5518" y1="24.6752" x2="52.4922" y2="31.2267" gradientUnits="userSpaceOnUse">
<stop stop-color="#967002"/>
<stop offset="0.2638" stop-color="#BFAE10"/>
<stop offset="0.5644" stop-color="#E8D100"/>
<stop offset="1" stop-color="#FCF3A2"/>
</linearGradient>
<linearGradient id="paint60_linear" x1="54.421" y1="25.0556" x2="52.6033" y2="30.8377" gradientUnits="userSpaceOnUse">
<stop stop-color="#FCF3A2"/>
<stop offset="0.4356" stop-color="#E8D100"/>
<stop offset="0.7362" stop-color="#BFAE10"/>
<stop offset="1" stop-color="#967002"/>
</linearGradient>
<linearGradient id="paint61_linear" x1="54.8065" y1="27.9174" x2="54.5299" y2="28.7481" gradientUnits="userSpaceOnUse">
<stop stop-color="#BA9C16"/>
<stop offset="0.1656" stop-color="#C3A624"/>
<stop offset="0.1848" stop-color="#C9AE2E"/>
<stop offset="0.2433" stop-color="#DAC248"/>
<stop offset="0.3104" stop-color="#E7D360"/>
<stop offset="0.3889" stop-color="#F2E173"/>
<stop offset="0.4859" stop-color="#F9EB80"/>
<stop offset="0.6221" stop-color="#FEF088"/>
<stop offset="1" stop-color="#FFF28A"/>
</linearGradient>
<linearGradient id="paint62_linear" x1="64.7679" y1="30.8464" x2="59.7136" y2="35.6988" gradientUnits="userSpaceOnUse">
<stop stop-color="#967002"/>
<stop offset="0.2638" stop-color="#BFAE10"/>
<stop offset="0.5644" stop-color="#E8D100"/>
<stop offset="1" stop-color="#FCF3A2"/>
</linearGradient>
<linearGradient id="paint63_linear" x1="64.4588" y1="31.1171" x2="59.998" y2="35.3996" gradientUnits="userSpaceOnUse">
<stop stop-color="#FCF3A2"/>
<stop offset="0.4356" stop-color="#E8D100"/>
<stop offset="0.7362" stop-color="#BFAE10"/>
<stop offset="1" stop-color="#967002"/>
</linearGradient>
<linearGradient id="paint64_linear" x1="63.3309" y1="33.7939" x2="62.6755" y2="34.4013" gradientUnits="userSpaceOnUse">
<stop stop-color="#BA9C16"/>
<stop offset="0.1656" stop-color="#C3A624"/>
<stop offset="0.1848" stop-color="#C9AE2E"/>
<stop offset="0.2433" stop-color="#DAC248"/>
<stop offset="0.3104" stop-color="#E7D360"/>
<stop offset="0.3889" stop-color="#F2E173"/>
<stop offset="0.4859" stop-color="#F9EB80"/>
<stop offset="0.6221" stop-color="#FEF088"/>
<stop offset="1" stop-color="#FFF28A"/>
</linearGradient>
<linearGradient id="paint65_linear" x1="70.7906" y1="40.0104" x2="64.1879" y2="42.6611" gradientUnits="userSpaceOnUse">
<stop stop-color="#967002"/>
<stop offset="0.2638" stop-color="#BFAE10"/>
<stop offset="0.5644" stop-color="#E8D100"/>
<stop offset="1" stop-color="#FCF3A2"/>
</linearGradient>
<linearGradient id="paint66_linear" x1="70.3994" y1="40.1538" x2="64.5721" y2="42.4932" gradientUnits="userSpaceOnUse">
<stop stop-color="#FCF3A2"/>
<stop offset="0.4356" stop-color="#E8D100"/>
<stop offset="0.7362" stop-color="#BFAE10"/>
<stop offset="1" stop-color="#967002"/>
</linearGradient>
<linearGradient id="paint67_linear" x1="68.3212" y1="42.2481" x2="67.4734" y2="42.5708" gradientUnits="userSpaceOnUse">
<stop stop-color="#BA9C16"/>
<stop offset="0.1656" stop-color="#C3A624"/>
<stop offset="0.1848" stop-color="#C9AE2E"/>
<stop offset="0.2433" stop-color="#DAC248"/>
<stop offset="0.3104" stop-color="#E7D360"/>
<stop offset="0.3889" stop-color="#F2E173"/>
<stop offset="0.4859" stop-color="#F9EB80"/>
<stop offset="0.6221" stop-color="#FEF088"/>
<stop offset="1" stop-color="#FFF28A"/>
</linearGradient>
<linearGradient id="paint68_linear" x1="72.0982" y1="50.874" x2="64.9399" y2="50.874" gradientUnits="userSpaceOnUse">
<stop stop-color="#967002"/>
<stop offset="0.2638" stop-color="#BFAE10"/>
<stop offset="0.5644" stop-color="#E8D100"/>
<stop offset="1" stop-color="#FCF3A2"/>
</linearGradient>
<linearGradient id="paint69_linear" x1="71.6793" y1="50.8735" x2="65.3615" y2="50.8735" gradientUnits="userSpaceOnUse">
<stop stop-color="#FCF3A2"/>
<stop offset="0.4356" stop-color="#E8D100"/>
<stop offset="0.7362" stop-color="#BFAE10"/>
<stop offset="1" stop-color="#967002"/>
</linearGradient>
<linearGradient id="paint70_linear" x1="68.9535" y1="52.1184" x2="68.0415" y2="52.1017" gradientUnits="userSpaceOnUse">
<stop stop-color="#BA9C16"/>
<stop offset="0.1656" stop-color="#C3A624"/>
<stop offset="0.1848" stop-color="#C9AE2E"/>
<stop offset="0.2433" stop-color="#DAC248"/>
<stop offset="0.3104" stop-color="#E7D360"/>
<stop offset="0.3889" stop-color="#F2E173"/>
<stop offset="0.4859" stop-color="#F9EB80"/>
<stop offset="0.6221" stop-color="#FEF088"/>
<stop offset="1" stop-color="#FFF28A"/>
</linearGradient>
<linearGradient id="paint71_linear" x1="67.9884" y1="61.5934" x2="62.2598" y2="57.4823" gradientUnits="userSpaceOnUse">
<stop stop-color="#967002"/>
<stop offset="0.2638" stop-color="#BFAE10"/>
<stop offset="0.5644" stop-color="#E8D100"/>
<stop offset="1" stop-color="#FCF3A2"/>
</linearGradient>
<linearGradient id="paint72_linear" x1="67.6427" y1="61.367" x2="62.5867" y2="57.7386" gradientUnits="userSpaceOnUse">
<stop stop-color="#FCF3A2"/>
<stop offset="0.4356" stop-color="#E8D100"/>
<stop offset="0.7362" stop-color="#BFAE10"/>
<stop offset="1" stop-color="#967002"/>
</linearGradient>
<linearGradient id="paint73_linear" x1="64.6584" y1="60.9214" x2="63.9382" y2="60.385" gradientUnits="userSpaceOnUse">
<stop stop-color="#BA9C16"/>
<stop offset="0.1656" stop-color="#C3A624"/>
<stop offset="0.1848" stop-color="#C9AE2E"/>
<stop offset="0.2433" stop-color="#DAC248"/>
<stop offset="0.3104" stop-color="#E7D360"/>
<stop offset="0.3889" stop-color="#F2E173"/>
<stop offset="0.4859" stop-color="#F9EB80"/>
<stop offset="0.6221" stop-color="#FEF088"/>
<stop offset="1" stop-color="#FFF28A"/>
</linearGradient>
<linearGradient id="paint74_linear" x1="59.0665" y1="68.6888" x2="55.5543" y2="62.724" gradientUnits="userSpaceOnUse">
<stop stop-color="#967002"/>
<stop offset="0.2638" stop-color="#BFAE10"/>
<stop offset="0.5644" stop-color="#E8D100"/>
<stop offset="1" stop-color="#FCF3A2"/>
</linearGradient>
<linearGradient id="paint75_linear" x1="58.8464" y1="68.3481" x2="55.7467" y2="63.0837" gradientUnits="userSpaceOnUse">
<stop stop-color="#FCF3A2"/>
<stop offset="0.4356" stop-color="#E8D100"/>
<stop offset="0.7362" stop-color="#BFAE10"/>
<stop offset="1" stop-color="#967002"/>
</linearGradient>
<linearGradient id="paint76_linear" x1="56.3072" y1="66.7849" x2="55.873" y2="66.0178" gradientUnits="userSpaceOnUse">
<stop stop-color="#BA9C16"/>
<stop offset="0.1656" stop-color="#C3A624"/>
<stop offset="0.1848" stop-color="#C9AE2E"/>
<stop offset="0.2433" stop-color="#DAC248"/>
<stop offset="0.3104" stop-color="#E7D360"/>
<stop offset="0.3889" stop-color="#F2E173"/>
<stop offset="0.4859" stop-color="#F9EB80"/>
<stop offset="0.6221" stop-color="#FEF088"/>
<stop offset="1" stop-color="#FFF28A"/>
</linearGradient>
<linearGradient id="paint77_linear" x1="46.7226" y1="68.3591" x2="42.6067" y2="66.7786" gradientUnits="userSpaceOnUse">
<stop offset="0.0736196" stop-color="#4A3700"/>
<stop offset="0.184" stop-color="#967002"/>
<stop offset="0.3865" stop-color="#BFAE10"/>
<stop offset="0.5644" stop-color="#E8D100"/>
<stop offset="1" stop-color="#FCF3A2"/>
</linearGradient>
<linearGradient id="paint78_linear" x1="48.8785" y1="68.1424" x2="53.4183" y2="67.0081" gradientUnits="userSpaceOnUse">
<stop stop-color="#FCF3A2"/>
<stop offset="0.3926" stop-color="#E8D100"/>
<stop offset="0.7178" stop-color="#BFAE10"/>
<stop offset="1" stop-color="#967002"/>
</linearGradient>
</defs>
</svg>
