<svg width="142" height="142" viewBox="0 0 142 142" fill="none" xmlns="http://www.w3.org/2000/svg">
<path d="M70.8276 141.388H70.5165C31.6334 141.388 -0.0012207 109.744 -0.0012207 70.8496L-0.0012207 70.5386C-0.0012207 31.644 31.6334 0 70.5165 0L70.8276 0C109.711 0 141.345 31.644 141.345 70.5386V70.8496C141.345 109.744 109.711 141.388 70.8276 141.388ZM70.5165 4.78584C34.2696 4.78584 4.78321 34.281 4.78321 70.5386V70.8496C4.78321 107.107 34.2696 136.602 70.5165 136.602H70.8276C107.074 136.602 136.561 107.107 136.561 70.8496V70.5386C136.561 34.281 107.074 4.78584 70.8276 4.78584H70.5165Z" fill="#00B0F2"/>
<path d="M28.2554 68.366C28.4468 68.2703 28.6383 68.1794 28.8249 68.0932C32.0687 66.5905 35.3556 65.1834 38.6378 63.7764C38.8148 63.7764 39.1113 63.5706 39.2788 63.5036C39.5324 63.3935 39.786 63.2882 40.0396 63.1782C40.5276 62.9676 41.0156 62.7618 41.4988 62.5512C42.4749 62.1348 43.446 61.7185 44.4221 61.3021C46.3693 60.4693 48.3166 59.6366 50.2638 58.7991C54.1584 57.1336 58.0578 55.4634 61.9523 53.7979C65.8468 52.1324 69.7461 50.4621 73.6406 48.7967C77.5352 47.1312 81.4345 45.461 85.329 43.7955C89.2235 42.13 93.1229 40.4597 97.0174 38.7942C97.8834 38.4209 98.8212 37.8658 99.7493 37.7031C100.529 37.5643 101.29 37.2963 102.075 37.1479C103.562 36.8656 105.204 36.7507 106.629 37.3681C107.122 37.5834 107.577 37.8849 107.955 38.263C109.763 40.0529 109.51 42.9914 109.127 45.5088C106.462 63.0537 103.797 80.6034 101.127 98.1483C100.764 100.556 100.266 103.197 98.3666 104.719C96.759 106.007 94.472 106.15 92.4865 105.605C90.5009 105.054 88.7499 103.901 87.0323 102.767C79.9082 98.0478 72.7795 93.329 65.6554 88.6101C63.9618 87.4902 62.0767 86.0258 62.0959 83.9918C62.1054 82.7666 62.8374 81.6754 63.5838 80.7039C69.7748 72.6254 78.7073 67.0738 85.3529 59.3686C86.2907 58.2822 87.0275 56.32 85.7405 55.6931C84.975 55.3198 84.0946 55.8271 83.3961 56.3105C74.6118 62.4124 65.8325 68.5191 57.0483 74.6211C54.1824 76.612 51.1778 78.6604 47.7234 79.1485C44.6326 79.5888 41.5228 78.7274 38.5325 77.8468C36.0255 77.1098 33.5231 76.3536 31.0304 75.5735C29.7051 75.1619 28.3368 74.7168 27.3129 73.7835C26.289 72.8503 25.7006 71.2806 26.3178 70.0362C26.7054 69.2562 27.4565 68.7632 28.246 68.3612L28.2554 68.366Z" fill="#00B0F2"/>
</svg>
