<svg width="25" height="25" viewBox="0 0 25 25" fill="none" xmlns="http://www.w3.org/2000/svg">
<path d="M12.5275 25H12.4725C5.59523 25 0 19.4048 0 12.5275L0 12.4725C0 5.59524 5.59523 0 12.4725 0L12.5275 0C19.4048 0 25 5.59524 25 12.4725V12.5275C25 19.4048 19.4048 25 12.5275 25ZM12.4725 0.846224C6.0615 0.846224 0.846224 6.06151 0.846224 12.4725V12.5275C0.846224 18.9385 6.0615 24.1538 12.4725 24.1538H12.5275C18.9385 24.1538 24.1538 18.9385 24.1538 12.5275V12.4725C24.1538 6.06151 18.9385 0.846224 12.5275 0.846224H12.4725Z" fill="white"/>
<path d="M4.99771 12.0886C5.03156 12.0717 5.06543 12.0556 5.09843 12.0404C5.67217 11.7747 6.25353 11.5259 6.83404 11.2771C6.86535 11.2771 6.9178 11.2407 6.94742 11.2289C6.99227 11.2094 7.03712 11.1908 7.08197 11.1713C7.16829 11.1341 7.25461 11.0977 7.34008 11.0605C7.51271 10.9869 7.68448 10.9132 7.85711 10.8396C8.20152 10.6924 8.54593 10.5451 8.89035 10.397C9.57917 10.1026 10.2689 9.80723 10.9577 9.51274C11.6465 9.21826 12.3362 8.92292 13.025 8.62843C13.7138 8.33395 14.4035 8.03862 15.0923 7.74413C15.7812 7.44965 16.4708 7.15431 17.1597 6.85982C17.3128 6.79382 17.4787 6.69566 17.6429 6.66689C17.7808 6.64235 17.9153 6.59496 18.0541 6.56872C18.3173 6.5188 18.6075 6.49848 18.8597 6.60765C18.9469 6.64573 19.0273 6.69904 19.0941 6.76589C19.414 7.08238 19.3691 7.60196 19.3014 8.04708C18.8301 11.1493 18.3588 14.2524 17.8866 17.3547C17.8222 17.7803 17.7342 18.2475 17.3983 18.5166C17.114 18.7442 16.7095 18.7696 16.3583 18.6731C16.0071 18.5758 15.6974 18.3719 15.3936 18.1713C14.1336 17.3369 12.8727 16.5026 11.6127 15.6682C11.3131 15.4702 10.9797 15.2112 10.9831 14.8516C10.9848 14.6349 11.1142 14.442 11.2462 14.2702C12.3413 12.8418 13.9212 11.8602 15.0966 10.4977C15.2624 10.3056 15.3927 9.9587 15.1651 9.84784C15.0297 9.78184 14.874 9.87154 14.7504 9.95701C13.1968 11.0359 11.644 12.1157 10.0903 13.1947C9.58342 13.5467 9.05199 13.9089 8.44102 13.9952C7.89435 14.073 7.34431 13.9207 6.81542 13.765C6.372 13.6347 5.92941 13.501 5.48853 13.3631C5.25412 13.2903 5.0121 13.2116 4.83101 13.0466C4.64992 12.8816 4.54585 12.604 4.65501 12.384C4.72355 12.246 4.85641 12.1589 4.99604 12.0878L4.99771 12.0886Z" fill="white"/>
</svg>
