<svg width="25" height="25" viewBox="0 0 25 25" fill="none" xmlns="http://www.w3.org/2000/svg">
<path d="M18.2138 9.20332V11.4839C17.8152 11.445 17.2973 11.3544 16.7244 11.1446C15.9764 10.8704 15.4196 10.4955 15.0548 10.2052V14.8146L15.0455 14.8002C15.0515 14.8916 15.0548 14.9847 15.0548 15.0787C15.0548 17.3677 13.1923 19.2311 10.9024 19.2311C8.61254 19.2311 6.75 17.3677 6.75 15.0787C6.75 12.7896 8.61254 10.9254 10.9024 10.9254C11.1267 10.9254 11.3467 10.9432 11.5616 10.9778V13.2254C11.3552 13.1518 11.1334 13.112 10.9024 13.112C9.81841 13.112 8.9358 13.9938 8.9358 15.0787C8.9358 16.1635 9.81841 17.0453 10.9024 17.0453C11.9864 17.0453 12.869 16.1627 12.869 15.0787C12.869 15.038 12.8682 14.9974 12.8657 14.9568V5.99951L15.1445 5.99951C15.153 6.19245 15.1606 6.38708 15.1691 6.58002C15.1843 6.95998 15.3197 7.3247 15.5558 7.62342C15.8325 7.97461 16.2412 8.38248 16.815 8.70828C17.3523 9.01207 17.8567 9.14324 18.2138 9.20501V9.20332Z" fill="white"/>
<path d="M12.5275 25H12.4725C5.59523 25 0 19.4048 0 12.5275L0 12.4725C0 5.59524 5.59523 0 12.4725 0L12.5275 0C19.4048 0 25 5.59524 25 12.4725V12.5275C25 19.4048 19.4048 25 12.5275 25ZM12.4725 0.846224C6.0615 0.846224 0.846224 6.06151 0.846224 12.4725V12.5275C0.846224 18.9385 6.0615 24.1538 12.4725 24.1538H12.5275C18.9385 24.1538 24.1538 18.9385 24.1538 12.5275V12.4725C24.1538 6.06151 18.9385 0.846224 12.5275 0.846224H12.4725Z" fill="white"/>
</svg>
