<svg width="142" height="142" viewBox="0 0 142 142" fill="none" xmlns="http://www.w3.org/2000/svg">
<path d="M105.643 57.0469V69.9448C103.389 69.7247 100.461 69.2126 97.2219 68.0257C92.9925 66.4751 89.8443 64.3549 87.7822 62.7134V88.7819L87.7296 88.7005C87.7631 89.2174 87.7822 89.7439 87.7822 90.2751C87.7822 103.221 77.2517 113.759 64.305 113.759C51.3583 113.759 40.8278 103.221 40.8278 90.2751C40.8278 77.3294 51.3583 66.7861 64.305 66.7861C65.5729 66.7861 66.8168 66.8866 68.0321 67.0828V79.7941C66.8647 79.3777 65.6111 79.1528 64.305 79.1528C58.1761 79.1528 53.186 84.1396 53.186 90.2751C53.186 96.4105 58.1761 101.397 64.305 101.397C70.4338 101.397 75.424 96.4057 75.424 90.2751C75.424 90.0454 75.4192 89.8156 75.4049 89.5859V38.9277L88.2894 38.9277C88.3372 40.0189 88.3803 41.1196 88.4281 42.2108C88.5142 44.3597 89.2798 46.4224 90.6146 48.1118C92.1791 50.0979 94.49 52.4047 97.7338 54.2472C100.772 55.9653 103.623 56.7071 105.643 57.0565V57.0469Z" fill="#FF004F"/>
<path d="M101.212 46.5757V59.4687C98.9586 59.2486 96.0306 58.7365 92.7915 57.5496C88.5621 55.999 85.4139 53.8789 83.3518 52.2373V78.3058L83.2992 78.2244C83.3327 78.7413 83.3518 79.2678 83.3518 79.799C83.3518 92.7447 72.8213 103.283 59.8746 103.283C46.9279 103.283 36.3974 92.7447 36.3974 79.799C36.3974 66.8533 46.9279 56.3101 59.8746 56.3101C61.1425 56.3101 62.3864 56.4106 63.6017 56.6068V69.318C62.4343 68.9016 61.1808 68.6767 59.8746 68.6767C53.7458 68.6767 48.7556 73.6636 48.7556 79.799C48.7556 85.9345 53.7458 90.9213 59.8746 90.9213C66.0035 90.9213 70.9936 85.9297 70.9936 79.799C70.9936 79.5693 70.9888 79.3395 70.9745 79.1098V28.4517H83.859C83.9068 29.5428 83.9499 30.6436 83.9977 31.7347C84.0839 33.8836 84.8494 35.9463 86.1842 37.6357C87.7487 39.6219 90.0596 41.9286 93.3035 43.7712C96.3416 45.4893 99.1931 46.2311 101.212 46.5804V46.5757Z" fill="#00F7EF"/>
<path d="M104.03 52.2134V65.1113C101.777 64.8911 98.8487 64.379 95.6096 63.1921C91.3801 61.6415 88.232 59.5214 86.1699 57.8799V83.9484L86.1173 83.867C86.1508 84.3839 86.1699 84.9104 86.1699 85.4416C86.1699 98.3873 75.6394 108.926 62.6927 108.926C49.746 108.926 39.2155 98.3873 39.2155 85.4416C39.2155 72.4959 49.746 61.9526 62.6927 61.9526C63.9606 61.9526 65.2045 62.0531 66.4198 62.2493V74.9606C65.2524 74.5442 63.9988 74.3192 62.6927 74.3192C56.5638 74.3192 51.5737 79.3061 51.5737 85.4416C51.5737 91.577 56.5638 96.5639 62.6927 96.5639C68.8215 96.5639 73.8117 91.5723 73.8117 85.4416C73.8117 85.2119 73.8069 84.9821 73.7926 84.7524V34.0942L86.6771 34.0942C86.7249 35.1854 86.768 36.2861 86.8158 37.3773C86.9019 39.5262 87.6674 41.5888 89.0023 43.2782C90.5668 45.2644 92.8777 47.5712 96.1215 49.4137C99.1596 51.1318 102.011 51.8737 104.03 52.223V52.2134Z" fill="black"/>
<path d="M71.1754 141.388H70.8644C31.9813 141.388 0.346558 109.744 0.346558 70.8496V70.5386C0.346558 31.644 31.9813 0 70.8644 0L71.1754 0C110.058 0 141.693 31.644 141.693 70.5386V70.8496C141.693 109.744 110.058 141.388 71.1754 141.388ZM70.8644 4.78584C34.6175 4.78584 5.13099 34.281 5.13099 70.5386V70.8496C5.13099 107.107 34.6175 136.602 70.8644 136.602H71.1754C107.422 136.602 136.909 107.107 136.909 70.8496V70.5386C136.909 34.281 107.422 4.78584 71.1754 4.78584H70.8644Z" fill="black"/>
</svg>
