<svg width="25" height="25" viewBox="0 0 25 25" fill="none" xmlns="http://www.w3.org/2000/svg">
<path d="M12.5 25C5.60723 25 0 19.3928 0 12.5C0 5.60722 5.60723 0 12.5 0C19.3928 0 25 5.60722 25 12.5C25 19.3928 19.3928 25 12.5 25ZM12.5 0.848551C6.07563 0.848551 0.848551 6.07562 0.848551 12.5C0.848551 18.9244 6.07563 24.1515 12.5 24.1515C18.9244 24.1515 24.1514 18.9244 24.1514 12.5C24.1514 6.07562 18.9244 0.848551 12.5 0.848551Z" fill="white"/>
<path d="M20.1039 9.99735C20.0088 9.08007 19.8044 8.06605 19.0517 7.53316C18.4687 7.11992 17.7025 7.10465 16.9872 7.1055C15.475 7.10635 13.9621 7.10804 12.45 7.10888C10.9955 7.11058 9.54112 7.11143 8.08671 7.11313C7.47914 7.11398 6.88855 7.06645 6.32426 7.32951C5.83974 7.55522 5.46044 7.9846 5.23218 8.46233C4.91567 9.12674 4.84949 9.87941 4.8113 10.6143C4.74087 11.9524 4.74851 13.294 4.83251 14.6313C4.89446 15.6071 5.05144 16.6856 5.8058 17.3076C6.47446 17.8583 7.41804 17.8855 8.28526 17.8863C11.038 17.8889 13.7915 17.8914 16.5451 17.8931C16.8981 17.894 17.2663 17.8872 17.6261 17.8481C18.3338 17.7718 19.0084 17.569 19.4632 17.0446C19.9223 16.5159 20.0402 15.7802 20.1098 15.0836C20.2795 13.3932 20.2778 11.6868 20.1039 9.99735ZM10.8581 14.8689V10.1297L14.9617 12.4989L10.8581 14.8689Z" fill="white"/>
</svg>
