<svg width="141" height="141" viewBox="0 0 141 141" fill="none" xmlns="http://www.w3.org/2000/svg">
<path d="M70.5193 141.001C31.6554 141.001 0.0397949 109.376 0.0397949 70.5002C0.0397949 31.6248 31.6554 0 70.5193 0C109.383 0 140.999 31.6248 140.999 70.5002C140.999 109.376 109.383 141.001 70.5193 141.001ZM70.5193 4.78584C34.2964 4.78584 4.82423 34.2666 4.82423 70.5002C4.82423 106.734 34.2964 136.215 70.5193 136.215C106.742 136.215 136.214 106.734 136.214 70.5002C136.214 34.2666 106.742 4.78584 70.5193 4.78584Z" fill="#FF0209"/>
<path d="M113.393 56.387C112.857 51.2135 111.704 45.4944 107.46 42.4888C104.173 40.1581 99.8528 40.072 95.8195 40.0768C87.2936 40.0816 78.763 40.0911 70.2371 40.0959C62.0366 40.1055 53.8361 40.1103 45.6356 40.1199C42.2099 40.1247 38.8799 39.8566 35.6983 41.3402C32.9664 42.6133 30.8277 45.035 29.5407 47.7294C27.7561 51.4767 27.383 55.7217 27.1677 59.8663C26.7705 67.4136 26.8136 74.98 27.2873 82.5224C27.6365 88.0262 28.5216 94.109 32.775 97.617C36.5451 100.723 41.8654 100.876 46.7551 100.881C62.2758 100.895 77.8013 100.91 93.3268 100.919C95.3172 100.924 97.3936 100.886 99.4222 100.666C103.412 100.235 107.216 99.0911 109.78 96.1334C112.369 93.1518 113.034 89.0025 113.426 85.0733C114.383 75.5399 114.374 65.9156 113.393 56.387ZM61.2615 83.8625V57.1335L84.3991 70.4956L61.2615 83.8625Z" fill="#FF0209"/>
</svg>
